<svg id="Layer_1" data-name="Layer 1" xmlns="http://www.w3.org/2000/svg" viewBox="0 0 960 960"><defs><style>.cls-1{fill:none;stroke-width:10px;}.cls-1,.cls-3,.cls-5{stroke:#1989d3;}.cls-1,.cls-5{stroke-linecap:round;stroke-linejoin:round;}.cls-2{opacity:0.5;}.cls-3,.cls-5{fill:#0a375a;stroke-width:5px;}.cls-3{stroke-miterlimit:10;}.cls-4{fill:#1989d3;}</style></defs><rect class="cls-1" x="5" y="5" width="950" height="950"/><g class="cls-2"><rect class="cls-3" x="42.49" y="41.38" width="200" height="200"/><path class="cls-4" d="M69.79,162.42V111.3h9.63v51.12Zm3.48-41.84V111.3H104v9.28Zm0,21.09v-9.28h26.89v9.28Zm0,20.75v-9.29H104v9.29Z"/><path class="cls-4" d="M128.88,162.94a34.69,34.69,0,0,1-7.15-.73,30.79,30.79,0,0,1-6.56-2.17,26.43,26.43,0,0,1-5.52-3.42l4.47-8a21.38,21.38,0,0,0,6.82,3.74,24.45,24.45,0,0,0,7.94,1.32,14,14,0,0,0,7.32-1.6,5,5,0,0,0,2.6-4.51v0a4.35,4.35,0,0,0-1.3-3.39,8,8,0,0,0-3.43-1.74,44.69,44.69,0,0,0-4.62-.95c-2-.31-4-.69-6-1.14a20,20,0,0,1-5.63-2.18,11.2,11.2,0,0,1-4.13-4.28,15.11,15.11,0,0,1-1.56-7.41v0q0-7.49,4.92-11.58t13.92-4.1a27.17,27.17,0,0,1,8.44,1.39,30,30,0,0,1,8,4l-4.08,8.15a24.77,24.77,0,0,0-6.17-3.18,18.87,18.87,0,0,0-6.17-1.11,13.39,13.39,0,0,0-6.85,1.46,4.55,4.55,0,0,0-2.43,4.1v0a4.7,4.7,0,0,0,1.44,3.73,9.22,9.22,0,0,0,3.77,1.88c1.54.41,3.21.79,5,1.14,2,.38,3.92.84,5.87,1.39a20,20,0,0,1,5.34,2.37,11.16,11.16,0,0,1,3.87,4.26,14.93,14.93,0,0,1,1.44,7v.07q0,7.38-5.1,11.44T128.88,162.94Z"/><path class="cls-4" d="M150.12,120.58V111.3H187.6v9.28ZM164,162.42V115.48h9.63v46.94Z"/><path class="cls-4" d="M198.88,162.94a18.72,18.72,0,0,1-8.37-1.82,13.7,13.7,0,0,1-5.73-5.17l7.88-5.73a8.77,8.77,0,0,0,3,2.49,8.2,8.2,0,0,0,3.71.88,5.12,5.12,0,0,0,4.29-2,8.84,8.84,0,0,0,1.51-5.5V111.3h10v34.87q0,8-4.27,12.38T198.88,162.94Z"/></g><rect class="cls-5" x="267.51" y="41.38" width="200" height="200"/><path class="cls-4" d="M289,162.42V111.3h9.63v51.12Zm3.48-41.84V111.3h30.76v9.28Zm0,21.09v-9.28h26.89v9.28Zm0,20.75v-9.29h30.76v9.29Z"/><path class="cls-4" d="M348.1,162.94a34.69,34.69,0,0,1-7.15-.73,30.79,30.79,0,0,1-6.56-2.17,26.43,26.43,0,0,1-5.52-3.42l4.47-8a21.38,21.38,0,0,0,6.82,3.74,24.4,24.4,0,0,0,7.94,1.32,14,14,0,0,0,7.32-1.6,5,5,0,0,0,2.6-4.51v0a4.35,4.35,0,0,0-1.3-3.39,8,8,0,0,0-3.43-1.74,44.69,44.69,0,0,0-4.62-.95c-2-.31-4-.69-6.05-1.14a20,20,0,0,1-5.63-2.18,11.2,11.2,0,0,1-4.13-4.28,15.11,15.11,0,0,1-1.56-7.41v0q0-7.49,4.92-11.58t13.92-4.1a27.17,27.17,0,0,1,8.44,1.39,30,30,0,0,1,8,4l-4.08,8.15a24.77,24.77,0,0,0-6.17-3.18,18.87,18.87,0,0,0-6.17-1.11,13.36,13.36,0,0,0-6.85,1.46,4.55,4.55,0,0,0-2.43,4.1v0a4.7,4.7,0,0,0,1.44,3.73,9.24,9.24,0,0,0,3.76,1.88q2.32.62,5,1.14c2,.38,3.92.84,5.87,1.39a20.12,20.12,0,0,1,5.34,2.37,11.16,11.16,0,0,1,3.87,4.26,14.93,14.93,0,0,1,1.44,7v.07q0,7.38-5.1,11.44T348.1,162.94Z"/><path class="cls-4" d="M369.34,120.58V111.3h37.47v9.28Zm13.92,41.84V115.48h9.63v46.94Z"/><path class="cls-4" d="M412.44,162.42V111.3h9.63v51.12Zm4.39-19.83v-9.28h16.35a5.49,5.49,0,0,0,4.22-1.74A6.47,6.47,0,0,0,439,127a6.64,6.64,0,0,0-1.6-4.66,5.49,5.49,0,0,0-4.24-1.74H416.83V111.3h16.11a17.49,17.49,0,0,1,8.45,2,14,14,0,0,1,5.61,5.47,18,18,0,0,1,0,16.49,13.79,13.79,0,0,1-5.63,5.44,17.6,17.6,0,0,1-8.43,1.94Z"/><g class="cls-2"><rect class="cls-5" x="492.51" y="41.38" width="200" height="200"/><path class="cls-4" d="M515.36,162.42V111.3H525v51.12Zm3.48-41.84V111.3H549.6v9.28Zm0,21.09v-9.28h26.89v9.28Zm0,20.75v-9.29H549.6v9.29Z"/><path class="cls-4" d="M558.39,162.38V111.3h11.78l19,39.16-.85.92V111.3h9.21v51.08H585.71l-19-38.57.84-.91v39.48Z"/><path class="cls-4" d="M604.59,120.58V111.3h37.47v9.28Zm13.92,41.84V115.48h9.63v46.94Z"/><path class="cls-4" d="M653.35,162.94a18.72,18.72,0,0,1-8.37-1.82,13.7,13.7,0,0,1-5.73-5.17l7.87-5.73a8.8,8.8,0,0,0,3,2.49,8.2,8.2,0,0,0,3.71.88,5.08,5.08,0,0,0,4.28-2,8.78,8.78,0,0,0,1.52-5.5V111.3h10v34.87q0,8-4.27,12.38T653.35,162.94Z"/></g><rect class="cls-5" x="717.51" y="41.38" width="200" height="200"/><path class="cls-4" d="M739.85,162.42V111.3h9.63v51.12Zm3.48-41.84V111.3h30.76v9.28Zm0,21.09v-9.28h26.89v9.28Zm0,20.75v-9.29h30.76v9.29Z"/><path class="cls-4" d="M782.88,162.38V111.3h11.78l19,39.16-.85.92V111.3H822v51.08H810.2l-19-38.57.84-.91v39.48Z"/><path class="cls-4" d="M833.29,162.42V111.3h9.64v51.12Zm3.52-41.84V111.3h30.06v9.28Zm0,21.55v-9.28H863v9.28Z"/><path class="cls-4" d="M878.86,162.94a18.72,18.72,0,0,1-8.37-1.82,13.7,13.7,0,0,1-5.73-5.17l7.87-5.73a8.8,8.8,0,0,0,3,2.49,8.19,8.19,0,0,0,3.7.88,5.09,5.09,0,0,0,4.29-2,8.78,8.78,0,0,0,1.52-5.5V111.3h10v34.87q0,8-4.27,12.38T878.86,162.94Z"/><g class="cls-2"><rect class="cls-5" x="42.49" y="268.01" width="200" height="200"/><path class="cls-4" d="M68.22,389.05V337.93h9.63v51.12Zm3.48-41.84v-9.28h30.76v9.28Zm0,21.1V359H98.6v9.29Zm0,20.74v-9.28h30.76v9.28Z"/><path class="cls-4" d="M127.32,389.58a34.63,34.63,0,0,1-7.15-.74,30.61,30.61,0,0,1-6.56-2.17,26,26,0,0,1-5.52-3.42l4.46-7.95a21.71,21.71,0,0,0,6.82,3.75,24.72,24.72,0,0,0,7.95,1.31,13.94,13.94,0,0,0,7.31-1.6,5,5,0,0,0,2.6-4.51v0a4.33,4.33,0,0,0-1.3-3.39,8,8,0,0,0-3.42-1.74,44.35,44.35,0,0,0-4.63-.95c-2-.3-4-.69-6-1.14a19.92,19.92,0,0,1-5.63-2.18,11.17,11.17,0,0,1-4.13-4.27,15.15,15.15,0,0,1-1.56-7.42v0q0-7.49,4.92-11.58t13.92-4.1a27.51,27.51,0,0,1,8.44,1.39,30.35,30.35,0,0,1,8,4l-4.08,8.15a25,25,0,0,0-6.17-3.18,18.92,18.92,0,0,0-6.17-1.11,13.43,13.43,0,0,0-6.86,1.46,4.57,4.57,0,0,0-2.42,4.1v0a4.7,4.7,0,0,0,1.44,3.73,9.17,9.17,0,0,0,3.76,1.88q2.32.62,5,1.14,3,.57,5.87,1.39a19.75,19.75,0,0,1,5.35,2.38,11.18,11.18,0,0,1,3.86,4.25,14.81,14.81,0,0,1,1.45,7v.07q0,7.38-5.1,11.44T127.32,389.58Z"/><path class="cls-4" d="M154.88,389.05V337.93h9.64v51.12Zm3.52-41.84v-9.28h30.06v9.28Zm0,21.55v-9.28h26.19v9.28Z"/><path class="cls-4" d="M200.44,389.58a18.58,18.58,0,0,1-8.36-1.83,13.63,13.63,0,0,1-5.73-5.17l7.87-5.73a8.75,8.75,0,0,0,3,2.49,8.23,8.23,0,0,0,3.71.88,5.12,5.12,0,0,0,4.29-2,8.78,8.78,0,0,0,1.51-5.5V337.93h10v34.88q0,8-4.27,12.37T200.44,389.58Z"/></g><rect class="cls-5" x="267.51" y="268.01" width="200" height="200"/><path class="cls-4" d="M286.91,389.05V337.93h9.64v51.12Zm3.49-41.84v-9.28h30.76v9.28Zm0,21.1V359h26.89v9.29Zm0,20.74v-9.28h30.76v9.28Z"/><path class="cls-4" d="M346,389.58a34.63,34.63,0,0,1-7.15-.74,30.79,30.79,0,0,1-6.56-2.17,26,26,0,0,1-5.52-3.42l4.47-7.95a21.6,21.6,0,0,0,6.82,3.75,24.66,24.66,0,0,0,7.94,1.31,13.94,13.94,0,0,0,7.31-1.6,5,5,0,0,0,2.61-4.51v0a4.36,4.36,0,0,0-1.3-3.39,8,8,0,0,0-3.43-1.74,44.35,44.35,0,0,0-4.63-.95c-2-.3-4-.69-6-1.14a19.92,19.92,0,0,1-5.63-2.18,11.17,11.17,0,0,1-4.13-4.27,15.15,15.15,0,0,1-1.56-7.42v0q0-7.49,4.92-11.58t13.92-4.1a27.46,27.46,0,0,1,8.44,1.39,30.35,30.35,0,0,1,8,4l-4.08,8.15a24.77,24.77,0,0,0-6.17-3.18,18.87,18.87,0,0,0-6.17-1.11,13.36,13.36,0,0,0-6.85,1.46,4.56,4.56,0,0,0-2.43,4.1v0a4.7,4.7,0,0,0,1.44,3.73,9.24,9.24,0,0,0,3.76,1.88c1.55.41,3.21.79,5,1.14q2.94.57,5.87,1.39a19.82,19.82,0,0,1,5.34,2.38,11.13,11.13,0,0,1,3.87,4.25,14.93,14.93,0,0,1,1.44,7v.07q0,7.38-5.1,11.44T346,389.58Z"/><path class="cls-4" d="M373.57,389.05V337.93h9.64v51.12Zm3.52-41.84v-9.28h30.06v9.28Zm0,21.55v-9.28h26.19v9.28Z"/><path class="cls-4" d="M414.53,389.05V337.93h9.63v51.12Zm4.4-19.83v-9.28h16.34a5.49,5.49,0,0,0,4.22-1.74,6.47,6.47,0,0,0,1.62-4.59,6.61,6.61,0,0,0-1.6-4.66,5.49,5.49,0,0,0-4.24-1.74H418.93v-9.28H435a17.49,17.49,0,0,1,8.45,1.95,14,14,0,0,1,5.61,5.47,18,18,0,0,1,0,16.49,13.91,13.91,0,0,1-5.62,5.45,17.67,17.67,0,0,1-8.44,1.93Z"/><g class="cls-2"><rect class="cls-5" x="492.51" y="268.01" width="200" height="200"/><path class="cls-4" d="M509.56,389.05V337.93h9.63v51.12ZM513,347.21v-9.28H543.8v9.28Zm0,21.1V359h26.89v9.29Zm0,20.74v-9.28H543.8v9.28Z"/><path class="cls-4" d="M552.59,389V337.93h11.78l19,39.16-.85.92V337.93h9.21V389H579.91L561,350.45l.84-.92V389Z"/><path class="cls-4" d="M598.79,347.21v-9.28h37.47v9.28Zm13.92,41.84V342.11h9.63v46.94Z"/><path class="cls-4" d="M641.89,389.05V337.93h9.63v51.12Zm4.39-19.83v-9.28h16.35a5.51,5.51,0,0,0,4.22-1.74,6.46,6.46,0,0,0,1.61-4.59,6.65,6.65,0,0,0-1.59-4.66,5.49,5.49,0,0,0-4.24-1.74H646.28v-9.28h16.1a17.5,17.5,0,0,1,8.46,1.95,14.06,14.06,0,0,1,5.61,5.47,18,18,0,0,1,0,16.49,13.94,13.94,0,0,1-5.63,5.45,17.64,17.64,0,0,1-8.44,1.93Z"/></g><rect class="cls-5" x="717.51" y="268.01" width="200" height="200"/><path class="cls-4" d="M733.52,389.05V337.93h9.63v51.12ZM737,347.21v-9.28h30.76v9.28Zm0,21.1V359h26.9v9.29Zm0,20.74v-9.28h30.76v9.28Z"/><path class="cls-4" d="M776.55,389V337.93h11.78l19,39.16-.84.92V337.93h9.21V389H803.87l-19-38.56.84-.92V389Z"/><path class="cls-4" d="M827,389.05V337.93h9.63v51.12Zm3.51-41.84v-9.28h30.06v9.28Zm0,21.55v-9.28h26.19v9.28Z"/><path class="cls-4" d="M867.92,389.05V337.93h9.64v51.12Zm4.4-19.83v-9.28h16.35a5.47,5.47,0,0,0,4.21-1.74,6.47,6.47,0,0,0,1.62-4.59,6.61,6.61,0,0,0-1.6-4.66,5.47,5.47,0,0,0-4.23-1.74H872.32v-9.28h16.1a17.56,17.56,0,0,1,8.46,1.95,14,14,0,0,1,5.6,5.47,17.92,17.92,0,0,1,0,16.49,13.85,13.85,0,0,1-5.62,5.45,17.67,17.67,0,0,1-8.44,1.93Z"/><g class="cls-2"><rect class="cls-5" x="42.49" y="492.63" width="200" height="200"/><path class="cls-4" d="M90.67,562.55v51.12h-10V562.55Z"/><path class="cls-4" d="M117.28,614.19a34.62,34.62,0,0,1-7.15-.73,30.79,30.79,0,0,1-6.56-2.17,26.43,26.43,0,0,1-5.52-3.42l4.47-8a21.38,21.38,0,0,0,6.82,3.74,24.4,24.4,0,0,0,7.94,1.32,14,14,0,0,0,7.32-1.6,5,5,0,0,0,2.6-4.51v0a4.35,4.35,0,0,0-1.3-3.39,8,8,0,0,0-3.43-1.74,44.69,44.69,0,0,0-4.62-1c-2-.31-4-.69-6-1.14a19.92,19.92,0,0,1-5.63-2.18,11.12,11.12,0,0,1-4.13-4.28,15.11,15.11,0,0,1-1.56-7.41v0q0-7.49,4.92-11.58t13.92-4.1a27.17,27.17,0,0,1,8.44,1.39,30,30,0,0,1,8,4l-4.08,8.15a24.77,24.77,0,0,0-6.17-3.18,18.87,18.87,0,0,0-6.17-1.11,13.36,13.36,0,0,0-6.85,1.46,4.55,4.55,0,0,0-2.43,4.1v0a4.7,4.7,0,0,0,1.44,3.73,9.24,9.24,0,0,0,3.76,1.88c1.55.41,3.21.79,5,1.14q2.94.57,5.87,1.39a20.12,20.12,0,0,1,5.34,2.37,11.16,11.16,0,0,1,3.87,4.26,14.93,14.93,0,0,1,1.44,7v.07q0,7.38-5.1,11.44T117.28,614.19Z"/><path class="cls-4" d="M138.52,571.83v-9.28H176v9.28Zm13.92,41.84V566.73h9.63v46.94Z"/><path class="cls-4" d="M187.28,614.19a18.72,18.72,0,0,1-8.37-1.82,13.7,13.7,0,0,1-5.73-5.17l7.88-5.73a8.68,8.68,0,0,0,3,2.49,8.2,8.2,0,0,0,3.71.88,5.12,5.12,0,0,0,4.29-2,8.84,8.84,0,0,0,1.51-5.5V562.55h10v34.87q0,8-4.27,12.38T187.28,614.19Z"/></g><rect class="cls-5" x="267.51" y="492.63" width="200" height="200"/><path class="cls-4" d="M309.89,562.55v51.12h-10V562.55Z"/><path class="cls-4" d="M336.5,614.19a34.62,34.62,0,0,1-7.15-.73,30.79,30.79,0,0,1-6.56-2.17,26.43,26.43,0,0,1-5.52-3.42l4.47-8a21.38,21.38,0,0,0,6.82,3.74A24.4,24.4,0,0,0,336.5,605a13.94,13.94,0,0,0,7.31-1.6,5,5,0,0,0,2.61-4.51v0a4.35,4.35,0,0,0-1.3-3.39,8,8,0,0,0-3.43-1.74,44.35,44.35,0,0,0-4.63-1q-3-.46-6-1.14a19.92,19.92,0,0,1-5.63-2.18,11.12,11.12,0,0,1-4.13-4.28,15.11,15.11,0,0,1-1.56-7.41v0q0-7.49,4.92-11.58t13.92-4.1a27.17,27.17,0,0,1,8.44,1.39,30,30,0,0,1,8,4l-4.08,8.15a24.77,24.77,0,0,0-6.17-3.18,18.87,18.87,0,0,0-6.17-1.11,13.36,13.36,0,0,0-6.85,1.46,4.55,4.55,0,0,0-2.43,4.1v0a4.7,4.7,0,0,0,1.44,3.73,9.24,9.24,0,0,0,3.76,1.88c1.55.41,3.21.79,5,1.14q2.94.57,5.87,1.39a20.12,20.12,0,0,1,5.34,2.37,11.16,11.16,0,0,1,3.87,4.26,14.93,14.93,0,0,1,1.44,7v.07q0,7.38-5.1,11.44T336.5,614.19Z"/><path class="cls-4" d="M357.74,571.83v-9.28h37.47v9.28Zm13.92,41.84V566.73h9.63v46.94Z"/><path class="cls-4" d="M400.84,613.67V562.55h9.63v51.12Zm4.39-19.83v-9.28h16.35a5.51,5.51,0,0,0,4.22-1.74,6.47,6.47,0,0,0,1.62-4.59,6.64,6.64,0,0,0-1.6-4.66,5.49,5.49,0,0,0-4.24-1.74H405.23v-9.28h16.1a17.5,17.5,0,0,1,8.46,2A14,14,0,0,1,435.4,570a18,18,0,0,1,0,16.49,13.79,13.79,0,0,1-5.63,5.44,17.61,17.61,0,0,1-8.44,1.94Z"/><g class="cls-2"><rect class="cls-5" x="492.51" y="492.63" width="200" height="200"/><path class="cls-4" d="M536.24,562.55v51.12h-10V562.55Z"/><path class="cls-4" d="M546.79,613.63V562.55h11.78l19,39.16-.85.92V562.55H586v51.08H574.11l-19-38.57.84-.91v39.48Z"/><path class="cls-4" d="M593,571.83v-9.28h37.48v9.28Zm13.93,41.84V566.73h9.63v46.94Z"/><path class="cls-4" d="M641.75,614.19a18.72,18.72,0,0,1-8.37-1.82,13.7,13.7,0,0,1-5.73-5.17l7.87-5.73a8.86,8.86,0,0,0,3,2.49,8.23,8.23,0,0,0,3.71.88,5.12,5.12,0,0,0,4.29-2,8.78,8.78,0,0,0,1.51-5.5V562.55h10v34.87q0,8-4.27,12.38T641.75,614.19Z"/></g><rect class="cls-5" x="717.51" y="492.63" width="200" height="200"/><path class="cls-4" d="M760.73,562.55v51.12h-10V562.55Z"/><path class="cls-4" d="M771.28,613.63V562.55h11.78l19,39.16-.85.92V562.55h9.21v51.08H798.6l-19-38.57.84-.91v39.48Z"/><path class="cls-4" d="M821.69,613.67V562.55h9.64v51.12Zm3.52-41.84v-9.28h30.06v9.28Zm0,21.55V584.1H851.4v9.28Z"/><path class="cls-4" d="M867.26,614.19a18.72,18.72,0,0,1-8.37-1.82,13.7,13.7,0,0,1-5.73-5.17l7.87-5.73a8.86,8.86,0,0,0,3,2.49,8.23,8.23,0,0,0,3.71.88,5.12,5.12,0,0,0,4.29-2,8.78,8.78,0,0,0,1.51-5.5V562.55h10v34.87q0,8-4.27,12.38T867.26,614.19Z"/><g class="cls-2"><rect class="cls-5" x="42.49" y="718.63" width="200" height="200"/><path class="cls-4" d="M89.1,788.55v51.12h-10V788.55Z"/><path class="cls-4" d="M115.72,840.19a34.79,34.79,0,0,1-7.16-.73,30.71,30.71,0,0,1-6.55-2.17,26.43,26.43,0,0,1-5.52-3.42l4.46-8a21.38,21.38,0,0,0,6.82,3.74,24.46,24.46,0,0,0,8,1.32,13.94,13.94,0,0,0,7.31-1.6,5,5,0,0,0,2.6-4.51v0a4.31,4.31,0,0,0-1.3-3.39,8,8,0,0,0-3.43-1.74,44.15,44.15,0,0,0-4.62-1q-3-.46-6-1.14a19.85,19.85,0,0,1-5.62-2.18,11.12,11.12,0,0,1-4.13-4.28,15.1,15.1,0,0,1-1.57-7.41v0q0-7.49,4.93-11.58t13.92-4.1a27.15,27.15,0,0,1,8.43,1.39,30.25,30.25,0,0,1,8,4l-4.08,8.15a25,25,0,0,0-6.17-3.18,18.92,18.92,0,0,0-6.17-1.11,13.4,13.4,0,0,0-6.86,1.46,4.54,4.54,0,0,0-2.42,4.1v0a4.7,4.7,0,0,0,1.44,3.73,9.17,9.17,0,0,0,3.76,1.88q2.32.62,5,1.14,3,.57,5.87,1.39a20,20,0,0,1,5.35,2.37,11.21,11.21,0,0,1,3.86,4.26,14.93,14.93,0,0,1,1.44,7v.07q0,7.38-5.09,11.44T115.72,840.19Z"/><path class="cls-4" d="M143.28,839.67V788.55h9.63v51.12Zm3.52-41.84v-9.28h30v9.28Zm0,21.55V810.1H173v9.28Z"/><path class="cls-4" d="M188.84,840.19a18.71,18.71,0,0,1-8.36-1.82,13.64,13.64,0,0,1-5.73-5.17l7.87-5.73a8.77,8.77,0,0,0,3,2.49,8.2,8.2,0,0,0,3.71.88,5.12,5.12,0,0,0,4.29-2,8.78,8.78,0,0,0,1.51-5.5V788.55h10v34.87q0,8-4.28,12.38T188.84,840.19Z"/></g><rect class="cls-5" x="267.51" y="718.63" width="200" height="200"/><path class="cls-4" d="M307.8,788.55v51.12h-10V788.55Z"/><path class="cls-4" d="M334.41,840.19a34.62,34.62,0,0,1-7.15-.73,30.61,30.61,0,0,1-6.56-2.17,26.43,26.43,0,0,1-5.52-3.42l4.47-8a21.27,21.27,0,0,0,6.82,3.74,24.36,24.36,0,0,0,7.94,1.32,13.94,13.94,0,0,0,7.31-1.6,5,5,0,0,0,2.6-4.51v0a4.31,4.31,0,0,0-1.3-3.39,8,8,0,0,0-3.42-1.74,44.35,44.35,0,0,0-4.63-1q-3-.46-6-1.14a19.92,19.92,0,0,1-5.63-2.18,11.12,11.12,0,0,1-4.13-4.28,15.11,15.11,0,0,1-1.56-7.41v0q0-7.49,4.92-11.58t13.92-4.1a27.21,27.21,0,0,1,8.44,1.39,30,30,0,0,1,8,4l-4.08,8.15a25,25,0,0,0-6.17-3.18,18.87,18.87,0,0,0-6.17-1.11,13.43,13.43,0,0,0-6.86,1.46,4.56,4.56,0,0,0-2.42,4.1v0a4.7,4.7,0,0,0,1.44,3.73,9.17,9.17,0,0,0,3.76,1.88q2.33.62,5,1.14,3,.57,5.87,1.39a20,20,0,0,1,5.35,2.37,11.24,11.24,0,0,1,3.87,4.26,14.93,14.93,0,0,1,1.44,7v.07q0,7.38-5.1,11.44T334.41,840.19Z"/><path class="cls-4" d="M362,839.67V788.55h9.64v51.12Zm3.52-41.84v-9.28h30.06v9.28Zm0,21.55V810.1h26.19v9.28Z"/><path class="cls-4" d="M402.93,839.67V788.55h9.63v51.12Zm4.39-19.83v-9.28h16.35a5.49,5.49,0,0,0,4.22-1.74,6.47,6.47,0,0,0,1.62-4.59,6.59,6.59,0,0,0-1.6-4.66,5.49,5.49,0,0,0-4.24-1.74H407.32v-9.28h16.11a17.49,17.49,0,0,1,8.45,2,14,14,0,0,1,5.61,5.47,18,18,0,0,1,0,16.49,13.79,13.79,0,0,1-5.63,5.44,17.6,17.6,0,0,1-8.43,1.94Z"/><g class="cls-2"><rect class="cls-5" x="492.51" y="718.63" width="200" height="200"/><path class="cls-4" d="M530.44,788.55v51.12h-10V788.55Z"/><path class="cls-4" d="M541,839.63V788.55h11.78l19,39.16-.85.92V788.55h9.21v51.08H568.3l-18.94-38.57.84-.91v39.48Z"/><path class="cls-4" d="M587.18,797.83v-9.28h37.48v9.28Zm13.93,41.84V792.73h9.63v46.94Z"/><path class="cls-4" d="M630.29,839.67V788.55h9.63v51.12Zm4.39-19.83v-9.28H651a5.51,5.51,0,0,0,4.22-1.74,6.5,6.5,0,0,0,1.61-4.59,6.59,6.59,0,0,0-1.6-4.66,5.45,5.45,0,0,0-4.23-1.74H634.68v-9.28h16.1a17.53,17.53,0,0,1,8.46,2,13.91,13.91,0,0,1,5.6,5.47,17.92,17.92,0,0,1,0,16.49,13.76,13.76,0,0,1-5.62,5.44,17.67,17.67,0,0,1-8.44,1.94Z"/></g><rect class="cls-5" x="717.51" y="718.63" width="200" height="200"/><path class="cls-4" d="M754.4,788.55v51.12h-10V788.55Z"/><path class="cls-4" d="M765,839.63V788.55h11.78l19,39.16-.85.92V788.55h9.22v51.08H792.27l-18.95-38.57.84-.91v39.48Z"/><path class="cls-4" d="M815.37,839.67V788.55H825v51.12Zm3.51-41.84v-9.28h30.06v9.28Zm0,21.55V810.1h26.19v9.28Z"/><path class="cls-4" d="M856.32,839.67V788.55H866v51.12Zm4.4-19.83v-9.28h16.34a5.48,5.48,0,0,0,4.22-1.74,6.47,6.47,0,0,0,1.62-4.59,6.59,6.59,0,0,0-1.6-4.66,5.49,5.49,0,0,0-4.24-1.74H860.72v-9.28h16.1a17.49,17.49,0,0,1,8.45,2,13.93,13.93,0,0,1,5.61,5.47,18,18,0,0,1,0,16.49,13.82,13.82,0,0,1-5.62,5.44,17.67,17.67,0,0,1-8.44,1.94Z"/></svg>