<svg xmlns="http://www.w3.org/2000/svg" viewBox="0 0 931.06 964.46"><defs><style>.cls-1{fill:none;stroke:#2fafa1;stroke-miterlimit:10;stroke-width:13px;}.cls-2{fill:#a58acf;}.cls-3{fill:#888;}.cls-4{fill:#fff;}.cls-5{fill:#3c2d49;}</style></defs><g id="Lines_-_Object" data-name="Lines - Object"><line class="cls-1" x1="465.74" y1="102.44" x2="127.74" y2="685.44"/><line class="cls-1" x1="801.74" y1="685.44" x2="465.74" y2="102.44"/><line class="cls-1" x1="127.74" y1="685.44" x2="801.74" y2="685.44"/></g><g id="Base"><path class="cls-2" d="M465.24,105.94a383.66,383.66,0,1,1-149.86,30.24,382.56,382.56,0,0,1,149.86-30.24m0-15c-220.92,0-400,179.08-400,400s179.08,400,400,400,400-179.09,400-400-179.09-400-400-400Z"/><path class="cls-3" d="M459.1,51.3l10-21.15.7,1.05a4.39,4.39,0,0,1-2.25,2,9.05,9.05,0,0,1-3.46.62,9.55,9.55,0,0,1-7.62-3.41,13.56,13.56,0,0,1-2.9-9.07v0q0-6.21,3.2-9.63t9-3.41q5.81,0,9,3.44t3.18,9.75v0a21.2,21.2,0,0,1-.82,5.61,39.71,39.71,0,0,1-2.17,6L466.57,51.3Zm6.65-24a4.64,4.64,0,0,0,3.81-1.64,7,7,0,0,0,1.35-4.6v0a6.62,6.62,0,0,0-1.35-4.46,5.43,5.43,0,0,0-7.65,0,6.71,6.71,0,0,0-1.34,4.48v0a7,7,0,0,0,1.34,4.59A4.72,4.72,0,0,0,465.75,27.33Z"/><path class="cls-3" d="M171.76,158.37a15.65,15.65,0,0,1-7-1.46,11,11,0,0,1-4.61-4.13,11.63,11.63,0,0,1-1.65-6.24v-.71a11.56,11.56,0,0,1,1.67-6,10.92,10.92,0,0,1,4.49-4.25,9.83,9.83,0,0,1-3.81-3.55,9,9,0,0,1-1.47-4.89v-1a10.47,10.47,0,0,1,3.37-8.13,14.66,14.66,0,0,1,17.93,0,10.44,10.44,0,0,1,3.37,8.13v1a9,9,0,0,1-1.48,4.94,9.69,9.69,0,0,1-3.88,3.5,11,11,0,0,1,4.54,4.25,11.41,11.41,0,0,1,1.7,6v.71a11.71,11.71,0,0,1-1.64,6.24,11,11,0,0,1-4.61,4.13A15.71,15.71,0,0,1,171.76,158.37Zm0-6.74a6.31,6.31,0,0,0,4.52-1.62,5.61,5.61,0,0,0,1.72-4.27v-.41a5.32,5.32,0,0,0-1.72-4.14,7.31,7.31,0,0,0-9.05,0,5.38,5.38,0,0,0-1.71,4.17v.44a5.54,5.54,0,0,0,1.71,4.24A6.39,6.39,0,0,0,171.76,151.63Zm0-18.75a5.08,5.08,0,0,0,3.86-1.52,5.62,5.62,0,0,0,1.47-4.07v-.41a5.09,5.09,0,0,0-1.47-3.81,5.91,5.91,0,0,0-7.73,0,5.12,5.12,0,0,0-1.46,3.84v.44a5.53,5.53,0,0,0,1.46,4A5.11,5.11,0,0,0,171.76,132.88Z"/><path class="cls-3" d="M26.69,386v5.33L16.41,428.58H8.88L19,392.7H9.93V399h-7V386Z"/><path class="cls-3" d="M69.06,737.05q-5.78,0-9-3.37t-3.19-9.49v0a24.23,24.23,0,0,1,.77-5.83,31.36,31.36,0,0,1,2.19-6l9-18.33h7.74L66,715.26l-1-1.06q1.53-2.9,5.42-2.9a9.92,9.92,0,0,1,8,3.33q2.82,3.32,2.82,9.39v0c0,4.13-1.06,7.32-3.19,9.6S72.92,737.05,69.06,737.05Zm0-6.74a4.87,4.87,0,0,0,3.85-1.49,6.22,6.22,0,0,0,1.33-4.28v0a7.39,7.39,0,0,0-1.38-4.79,4.8,4.8,0,0,0-4-1.68,4.39,4.39,0,0,0-3.69,1.7,7.66,7.66,0,0,0-1.32,4.8v0a6.08,6.08,0,0,0,1.35,4.26A4.88,4.88,0,0,0,69.06,730.31Z"/><path class="cls-3" d="M308.37,948.33a11.71,11.71,0,0,1-8.28-3.06,13.39,13.39,0,0,1-3.91-8.66v0h7v0a5.86,5.86,0,0,0,1.67,3.65,5,5,0,0,0,3.58,1.3,4.69,4.69,0,0,0,3.85-1.66,7.09,7.09,0,0,0,1.36-4.64v-3.57a7.25,7.25,0,0,0-1.3-4.63,4.42,4.42,0,0,0-3.68-1.64,5.25,5.25,0,0,0-3,.88,5.91,5.91,0,0,0-2.1,2.46h-6.47V905.29h22.29V912H304.12v8.55a7.18,7.18,0,0,1,2.49-1.4,8.93,8.93,0,0,1,3-.5,10.14,10.14,0,0,1,8.17,3.41q2.91,3.42,2.9,9.63v3.57q0,6.24-3.2,9.65T308.37,948.33Z"/><path class="cls-3" d="M607.59,941.69v-6.27l13.71-29.76h7.62l-13.36,29.41h20v6.62Zm17.78,6.57V923.18h6.92v25.08Z"/><path class="cls-3" d="M860.61,737.91a15.18,15.18,0,0,1-6.57-1.35,11,11,0,0,1-4.58-3.91,13.27,13.27,0,0,1-2.06-6.22h7.18a5.32,5.32,0,0,0,1.81,3.54,5.89,5.89,0,0,0,3.78,1.18,5.55,5.55,0,0,0,4.08-1.43,5.42,5.42,0,0,0,1.43-4v-1.15a6.65,6.65,0,0,0-1.27-4.35,4.49,4.49,0,0,0-3.65-1.54h-3.31V712h3.31a3.8,3.8,0,0,0,3.12-1.33,5.72,5.72,0,0,0,1.1-3.73v-1a4.77,4.77,0,0,0-1.19-3.47,4.47,4.47,0,0,0-3.35-1.22,4.77,4.77,0,0,0-3.33,1.25,6.66,6.66,0,0,0-1.86,3.76H848.1a13.75,13.75,0,0,1,4.1-8.7,12,12,0,0,1,8.38-3.07c3.71,0,6.59,1,8.63,2.9s3.06,4.65,3.06,8.17v1a8.93,8.93,0,0,1-1.61,5.34,9.55,9.55,0,0,1-4.57,3.39,8.07,8.07,0,0,1,5.08,3.32,11.26,11.26,0,0,1,1.81,6.61v1q0,5.61-3.24,8.68T860.61,737.91Z"/><path class="cls-3" d="M903.52,429.56v-6.21l14.74-19.51a13.21,13.21,0,0,0,1.77-3.08,8.07,8.07,0,0,0,.63-3v-.06a4.22,4.22,0,0,0-1.3-3.31,5.38,5.38,0,0,0-3.71-1.17,5.06,5.06,0,0,0-3.72,1.42,6.51,6.51,0,0,0-1.73,4v0H903v0q.62-5.81,4-9a12,12,0,0,1,8.64-3.18q5.86,0,9.08,2.9t3.23,8.2v0a15.25,15.25,0,0,1-1,5.25,19.24,19.24,0,0,1-2.71,5l-11.43,15h15.35v6.71Z"/><path class="cls-3" d="M764.48,116v42.6h-7V124l-5.63,2.84v-7.36l6.21-3.45Z"/><path class="cls-4" d="M215.5,225.2a32.5,32.5,0,1,1,20.85-7.58A32.44,32.44,0,0,1,215.5,225.2Z"/><path class="cls-5" d="M215.46,152.7v15a25,25,0,0,1,16.07,44.17,25,25,0,1,1-16.07-44.17v-15m0,0A40,40,0,1,0,246.15,167a39.85,39.85,0,0,0-30.69-14.32Z"/><path class="cls-4" d="M82.26,455.52a32.51,32.51,0,0,1-.09-65,33.49,33.49,0,0,1,5.72.5,32.51,32.51,0,0,1-5.63,64.51Z"/><path class="cls-5" d="M82.17,398a25.27,25.27,0,0,1,4.41.39,25,25,0,1,1-4.41-.39h0m0-15a40,40,0,1,0,7,.62,40,40,0,0,0-7-.62Z"/><path class="cls-4" d="M128.2,717.61a32.5,32.5,0,1,1,16.19-4.34A32.63,32.63,0,0,1,128.2,717.61Z"/><path class="cls-5" d="M128.13,660.1h0a25.11,25.11,0,0,1,21.7,12.53,25,25,0,0,1-21.63,37.48,25,25,0,0,1-.07-50m0-15a40,40,0,1,0,34.69,20,39.74,39.74,0,0,0-34.69-20Z"/><path class="cls-4" d="M331.83,888.86a32.51,32.51,0,1,1,30.53-21.37A32.5,32.5,0,0,1,331.83,888.86Z"/><path class="cls-5" d="M331.84,831.33a25,25,0,1,1-23.49,16.44,25,25,0,0,1,23.49-16.44h0m0-15a40,40,0,1,0,13.71,2.44,40,40,0,0,0-13.71-2.44Z"/><path class="cls-4" d="M597.93,889.12a32.56,32.56,0,1,1,11.08-2A32.6,32.6,0,0,1,597.93,889.12Z"/><path class="cls-5" d="M597.93,831.59a25,25,0,0,1,22.64,35.6,25,25,0,0,1-22.64,14.43,25.07,25.07,0,0,1-23.5-16.49,25,25,0,0,1,23.49-33.54h0m0-15A40,40,0,1,0,635.53,843a40,40,0,0,0-37.61-26.37Z"/><path class="cls-4" d="M801.89,718.27A32.51,32.51,0,1,1,830.06,702,32.43,32.43,0,0,1,801.89,718.27Z"/><path class="cls-5" d="M802,660.76h0a25,25,0,1,1-21.68,12.48A25,25,0,0,1,802,660.76m0-15a40,40,0,1,0,20,5.38,40,40,0,0,0-20-5.38Z"/><path class="cls-4" d="M848.35,456.27a32.66,32.66,0,1,1,5.65-.5A32.43,32.43,0,0,1,848.35,456.27Z"/><path class="cls-5" d="M848.44,383.75v15a25,25,0,1,1-4.36.38,25.59,25.59,0,0,1,4.36-.38v-15m0,0a40,40,0,1,0,39.35,33.1,40.34,40.34,0,0,0-39.35-33.1Z"/><path class="cls-4" d="M715.55,225.69a32.5,32.5,0,1,1,24.9-11.59A32.49,32.49,0,0,1,715.55,225.69Z"/><path class="cls-5" d="M715.59,168.19a25,25,0,0,1,19.12,41.09,25,25,0,0,1-19.16,8.91,25,25,0,0,1-19.11-41.09,25,25,0,0,1,19.15-8.91m0-15a40,40,0,1,0,25.72,9.38,39.94,39.94,0,0,0-25.72-9.38Z"/><path class="cls-4" d="M465.58,134.44A32.5,32.5,0,1,1,498.12,102a32.27,32.27,0,0,1-32.54,32.47Z"/><path class="cls-5" d="M465.64,76.94a25,25,0,1,1-25,25,25,25,0,0,1,25-25h0m0-15a40,40,0,0,0,0,80h0a40,40,0,0,0,0-80Z"/></g></svg>