<?xml version="1.0" encoding="iso-8859-1"?><!DOCTYPE svg PUBLIC "-//W3C//DTD SVG 1.1//EN" "http://www.w3.org/Graphics/SVG/1.1/DTD/svg11.dtd"><svg version="1.1" xmlns="http://www.w3.org/2000/svg" xmlns:xlink="http://www.w3.org/1999/xlink" x="0px" y="0px" width="620" height="620" viewBox="0 0 620 620" enable-background="new 0 0 620 620" xml:space="preserve"><g><polygon points="319,312 305,376 361,353" style="fill:#80A035;stroke:#80A035;"/><polygon points="319,312 236,367 305,376" style="fill:#80A035;stroke:#80A035;"/><polygon points="305,376 379,433 361,353" style="fill:#80A035;stroke:#80A035;"/><polygon points="238,458 379,433 305,376" style="fill:#80A035;stroke:#80A035;"/><polygon points="319,312 205,300 236,367" style="fill:#80A035;stroke:#80A035;"/><polygon points="275,235 269,241 319,312" style="fill:#80A035;stroke:#80A035;"/><polygon points="361,353 384,240 319,312" style="fill:#80A035;stroke:#80A035;"/><polygon points="456,297 384,240 361,353" style="fill:#80A035;stroke:#80A035;"/><polygon points="384,240 275,235 319,312" style="fill:#80A035;stroke:#80A035;"/><polygon points="147,341 205,300 81,275" style="fill:#7D9C33;stroke:#7D9C33;"/><polygon points="269,241 205,300 319,312" style="fill:#80A035;stroke:#80A035;"/><polygon points="495,380 456,297 361,353" style="fill:#80A035;stroke:#80A035;"/><polygon points="236,367 238,458 305,376" style="fill:#80A035;stroke:#80A035;"/><polygon points="157,407 238,458 236,367" style="fill:#80A035;stroke:#80A035;"/><polygon points="456,297 453,245 384,240" style="fill:#80A035;stroke:#80A035;"/><polygon points="238,458 333,517 379,433" style="fill:#80A035;stroke:#80A035;"/><polygon points="379,433 495,380 361,353" style="fill:#80A035;stroke:#80A035;"/><polygon points="333,517 427,486 379,433" style="fill:#80A035;stroke:#80A035;"/><polygon points="427,486 495,380 379,433" style="fill:#80A035;stroke:#80A035;"/><polygon points="456,297 521,237 453,245" style="fill:#80A035;stroke:#80A035;"/><polygon points="205,300 147,341 236,367" style="fill:#80A035;stroke:#80A035;"/><polygon points="168,188 205,300 269,241" style="fill:#80A035;stroke:#80A035;"/><polygon points="147,341 157,407 236,367" style="fill:#80A035;stroke:#80A035;"/><polygon points="333,517 381,568 427,486" style="fill:#80A035;stroke:#80A035;"/><polygon points="262,517 330,527 333,517" style="fill:#80A035;stroke:#80A035;"/><polygon points="262,517 333,517 238,458" style="fill:#80A035;stroke:#80A035;"/><polygon points="207,563 262,517 238,458" style="fill:#80A035;stroke:#80A035;"/><polygon points="275,235 281,171 269,241" style="fill:#80A035;stroke:#80A035;"/><polygon points="326,159 281,171 275,235" style="fill:#80A035;stroke:#80A035;"/><polygon points="326,159 275,235 384,240" style="fill:#80A035;stroke:#80A035;"/><polygon points="439,145 326,159 384,240" style="fill:#80A035;stroke:#80A035;"/><polygon points="427,486 510,444 495,380" style="fill:#80A035;stroke:#80A035;"/><polygon points="427,486 475,507 510,444" style="fill:#80A035;stroke:#80A035;"/><polygon points="381,568 475,507 427,486" style="fill:#80A035;stroke:#80A035;"/><polygon points="157,407 143,503 238,458" style="fill:#80A035;stroke:#80A035;"/><polygon points="63,418 123,439 157,407" style="fill:#80A035;stroke:#80A035;"/><polygon points="560,431 549,352 495,380" style="fill:#7D9D33;stroke:#7D9D33;"/><polygon points="495,380 544,296 456,297" style="fill:#80A035;stroke:#80A035;"/><polygon points="281,171 168,188 269,241" style="fill:#80A035;stroke:#80A035;"/><polygon points="63,418 81,446 123,439" style="fill:#80A035;stroke:#80A035;"/><polygon points="262,85 168,188 281,171" style="fill:#82A238;stroke:#82A238;"/><polygon points="544,296 521,237 456,297" style="fill:#80A035;stroke:#80A035;"/><polygon points="453,245 439,145 384,240" style="fill:#80A035;stroke:#80A035;"/><polygon points="549,352 544,296 495,380" style="fill:#80A035;stroke:#80A035;"/><polygon points="330,527 381,568 333,517" style="fill:#80A035;stroke:#80A035;"/><polygon points="325,620 381,568 330,527" style="fill:#80A035;stroke:#80A035;"/><polygon points="521,237 439,145 453,245" style="fill:#80A035;stroke:#80A035;"/><polygon points="263,620 325,620 330,527" style="fill:#80A035;stroke:#80A035;"/><polygon points="123,439 143,503 157,407" style="fill:#80A035;stroke:#80A035;"/><polygon points="143,503 207,563 238,458" style="fill:#80A035;stroke:#80A035;"/><polygon points="576,537 540,472 475,507" style="fill:#7B9A30;stroke:#7B9A30;"/><polygon points="475,507 540,472 510,444" style="fill:#80A035;stroke:#80A035;"/><polygon points="510,444 560,431 495,380" style="fill:#7F9F34;stroke:#7F9F34;"/><polygon points="540,472 560,431 510,444" style="fill:#7C9C32;stroke:#7C9C32;"/><polygon points="620,339 583,261 544,296" style="fill:#7C9B32;stroke:#7C9B32;"/><polygon points="168,188 81,275 205,300" style="fill:#7D9D33;stroke:#7D9D33;"/><polygon points="123,439 77,484 143,503" style="fill:#80A035;stroke:#80A035;"/><polygon points="190,620 263,620 207,563" style="fill:#72912A;stroke:#72912A;"/><polygon points="63,418 157,407 147,341" style="fill:#80A035;stroke:#80A035;"/><polygon points="326,159 262,85 281,171" style="fill:#83A339;stroke:#83A339;"/><polygon points="168,188 73,197 81,275" style="fill:#6A8724;stroke:#6A8724;"/><polygon points="303,41 262,85 326,159" style="fill:#B3CE73;stroke:#B3CE73;"/><polygon points="521,237 518,116 439,145" style="fill:#80A035;stroke:#80A035;"/><polygon points="544,296 583,261 521,237" style="fill:#6B8825;stroke:#6B8825;"/><polygon points="620,339 544,296 549,352" style="fill:#80A035;stroke:#80A035;"/><polygon points="51,339 63,418 147,341" style="fill:#80A035;stroke:#80A035;"/><polygon points="381,568 516,580 475,507" style="fill:#9AB854;stroke:#9AB854;"/><polygon points="263,620 330,527 262,517" style="fill:#73912B;stroke:#73912B;"/><polygon points="81,275 51,339 147,341" style="fill:#6F8D29;stroke:#6F8D29;"/><polygon points="116,553 207,563 143,503" style="fill:#7B9A31;stroke:#7B9A31;"/><polygon points="207,563 263,620 262,517" style="fill:#536E14;stroke:#536E14;"/><polygon points="325,620 401,620 381,568" style="fill:#80A035;stroke:#80A035;"/><polygon points="81,446 77,484 123,439" style="fill:#80A035;stroke:#80A035;"/><polygon points="0,488 77,484 81,446" style="fill:#80A035;stroke:#80A035;"/><polygon points="477,60 371,62 439,145" style="fill:#80A035;stroke:#80A035;"/><polygon points="439,145 371,62 326,159" style="fill:#80A035;stroke:#80A035;"/><polygon points="81,275 0,323 51,339" style="fill:#668322;stroke:#668322;"/><polygon points="65,135 73,197 168,188" style="fill:#6B8A23;stroke:#6B8A23;"/><polygon points="77,484 116,553 143,503" style="fill:#80A035;stroke:#80A035;"/><polygon points="620,419 549,352 560,431" style="fill:#6D8B27;stroke:#6D8B27;"/><polygon points="620,419 620,339 549,352" style="fill:#80A035;stroke:#80A035;"/><polygon points="563,140 521,237 620,179" style="fill:#688720;stroke:#688720;"/><polygon points="563,140 518,116 521,237" style="fill:#80A035;stroke:#80A035;"/><polygon points="401,620 516,580 381,568" style="fill:#A9C667;stroke:#A9C667;"/><polygon points="620,505 620,419 560,431" style="fill:#5D791B;stroke:#5D791B;"/><polygon points="620,505 560,431 540,472" style="fill:#63801F;stroke:#63801F;"/><polygon points="116,553 190,620 207,563" style="fill:#678520;stroke:#678520;"/><polygon points="620,339 620,261 583,261" style="fill:#74932C;stroke:#74932C;"/><polygon points="262,85 120,87 168,188" style="fill:#8CAB43;stroke:#8CAB43;"/><polygon points="371,62 303,41 326,159" style="fill:#83A238;stroke:#83A238;"/><polygon points="516,580 576,537 475,507" style="fill:#88A83E;stroke:#88A83E;"/><polygon points="620,179 521,237 583,261" style="fill:#5C781A;stroke:#5C781A;"/><polygon points="77,484 58,525 116,553" style="fill:#80A035;stroke:#80A035;"/><polygon points="116,553 102,620 190,620" style="fill:#8DAD44;stroke:#8DAD44;"/><polygon points="0,488 58,525 77,484" style="fill:#80A035;stroke:#80A035;"/><polygon points="0,427 81,446 63,418" style="fill:#80A035;stroke:#80A035;"/><polygon points="490,0 477,60 557,33" style="fill:#80A035;stroke:#80A035;"/><polygon points="518,116 477,60 439,145" style="fill:#80A035;stroke:#80A035;"/><polygon points="371,62 338,0 303,41" style="fill:#82A237;stroke:#82A237;"/><polygon points="516,580 568,620 576,537" style="fill:#85A53A;stroke:#85A53A;"/><polygon points="401,620 505,620 516,580" style="fill:#8CAB42;stroke:#8CAB42;"/><polygon points="51,339 0,427 63,418" style="fill:#80A035;stroke:#80A035;"/><polygon points="0,243 0,323 81,275" style="fill:#4F6911;stroke:#4F6911;"/><polygon points="161,0 120,87 262,85" style="fill:#A9C764;stroke:#A9C764;"/><polygon points="73,197 0,243 81,275" style="fill:#455F0A;stroke:#455F0A;"/><polygon points="620,577 620,505 576,537" style="fill:#7B9B31;stroke:#7B9B31;"/><polygon points="576,537 620,505 540,472" style="fill:#607E19;stroke:#607E19;"/><polygon points="0,323 0,427 51,339" style="fill:#80A035;stroke:#80A035;"/><polygon points="120,87 65,135 168,188" style="fill:#79982F;stroke:#79982F;"/><polygon points="620,261 620,179 583,261" style="fill:#688523;stroke:#688523;"/><polygon points="557,33 477,60 518,116" style="fill:#80A036;stroke:#80A036;"/><polygon points="0,576 60,561 58,525" style="fill:#B0CC70;stroke:#B0CC70;"/><polygon points="58,525 60,561 116,553" style="fill:#8AA941;stroke:#8AA941;"/><polygon points="0,186 0,243 73,197" style="fill:#6F8E27;stroke:#6F8E27;"/><polygon points="303,41 267,0 262,85" style="fill:#D3ED9A;stroke:#D3ED9A;"/><polygon points="412,0 338,0 371,62" style="fill:#80A035;stroke:#80A035;"/><polygon points="338,0 267,0 303,41" style="fill:#A1BE5D;stroke:#A1BE5D;"/><polygon points="60,561 102,620 116,553" style="fill:#9EBD57;stroke:#9EBD57;"/><polygon points="0,427 0,488 81,446" style="fill:#80A035;stroke:#80A035;"/><polygon points="60,561 19,620 102,620" style="fill:#A0BD5B;stroke:#A0BD5B;"/><polygon points="490,0 412,0 477,60" style="fill:#80A035;stroke:#80A035;"/><polygon points="477,60 412,0 371,62" style="fill:#80A035;stroke:#80A035;"/><polygon points="0,109 0,186 65,135" style="fill:#688720;stroke:#688720;"/><polygon points="65,135 0,186 73,197" style="fill:#5C7A15;stroke:#5C7A15;"/><polygon points="505,620 568,620 516,580" style="fill:#8CAC43;stroke:#8CAC43;"/><polygon points="568,620 620,577 576,537" style="fill:#80A035;stroke:#80A035;"/><polygon points="557,33 518,116 563,140" style="fill:#8DAC44;stroke:#8DAC44;"/><polygon points="120,87 21,47 65,135" style="fill:#7D9D32;stroke:#7D9D32;"/><polygon points="267,0 161,0 262,85" style="fill:#B2CE72;stroke:#B2CE72;"/><polygon points="620,179 620,95 563,140" style="fill:#85A43B;stroke:#85A43B;"/><polygon points="620,95 557,33 563,140" style="fill:#A5C360;stroke:#A5C360;"/><polygon points="161,0 107,24 120,87" style="fill:#9FBE58;stroke:#9FBE58;"/><polygon points="0,488 0,576 58,525" style="fill:#83A339;stroke:#83A339;"/><polygon points="568,620 620,620 620,577" style="fill:#80A035;stroke:#80A035;"/><polygon points="21,47 0,109 65,135" style="fill:#7A9A30;stroke:#7A9A30;"/><polygon points="0,576 19,620 60,561" style="fill:#BFDA82;stroke:#BFDA82;"/><polygon points="107,24 21,47 120,87" style="fill:#80A035;stroke:#80A035;"/><polygon points="161,0 101,0 107,24" style="fill:#83A339;stroke:#83A339;"/><polygon points="620,6 567,0 557,33" style="fill:#AAC768;stroke:#AAC768;"/><polygon points="557,33 567,0 490,0" style="fill:#8AA942;stroke:#8AA942;"/><polygon points="0,576 0,620 19,620" style="fill:#80A035;stroke:#80A035;"/><polygon points="101,0 21,47 107,24" style="fill:#80A035;stroke:#80A035;"/><polygon points="620,95 620,6 557,33" style="fill:#AECB6E;stroke:#AECB6E;"/><polygon points="620,6 620,0 567,0" style="fill:#80A035;stroke:#80A035;"/><polygon points="101,0 7,0 21,47" style="fill:#80A035;stroke:#80A035;"/><polygon points="21,47 0,1 0,109" style="fill:#80A035;stroke:#80A035;"/><polygon points="7,0 0,1 21,47" style="fill:#80A035;stroke:#80A035;"/><polygon points="7,0 0,0 0,1" style="fill:#80A035;stroke:#80A035;"/></g></svg>