<?xml version="1.0" encoding="iso-8859-1"?><!DOCTYPE svg PUBLIC "-//W3C//DTD SVG 1.1//EN" "http://www.w3.org/Graphics/SVG/1.1/DTD/svg11.dtd"><svg version="1.1" xmlns="http://www.w3.org/2000/svg" xmlns:xlink="http://www.w3.org/1999/xlink" x="0px" y="0px" width="622" height="620" viewBox="0 0 622 620" enable-background="new 0 0 622 620" xml:space="preserve"><g><polygon points="318,319 283,377 323,369" style="fill:#313A75;stroke:#313A75;"/><polygon points="318,319 260,338 283,377" style="fill:#313A75;stroke:#313A75;"/><polygon points="260,338 256,374 283,377" style="fill:#313A75;stroke:#313A75;"/><polygon points="318,319 248,302 260,338" style="fill:#313A75;stroke:#313A75;"/><polygon points="260,338 201,351 256,374" style="fill:#313A75;stroke:#313A75;"/><polygon points="283,377 293,418 323,369" style="fill:#313A75;stroke:#313A75;"/><polygon points="256,374 293,418 283,377" style="fill:#313A75;stroke:#313A75;"/><polygon points="323,369 368,312 318,319" style="fill:#313A75;stroke:#313A75;"/><polygon points="318,319 290,262 248,302" style="fill:#313A75;stroke:#313A75;"/><polygon points="361,393 368,312 323,369" style="fill:#313A75;stroke:#313A75;"/><polygon points="293,418 361,393 323,369" style="fill:#313A75;stroke:#313A75;"/><polygon points="352,279 290,262 318,319" style="fill:#313A75;stroke:#313A75;"/><polygon points="368,312 352,279 318,319" style="fill:#313A75;stroke:#313A75;"/><polygon points="293,418 352,445 361,393" style="fill:#313A75;stroke:#313A75;"/><polygon points="256,374 278,434 293,418" style="fill:#313A75;stroke:#313A75;"/><polygon points="204,309 201,351 260,338" style="fill:#313A75;stroke:#313A75;"/><polygon points="256,374 250,455 278,434" style="fill:#313A75;stroke:#313A75;"/><polygon points="290,262 236,271 248,302" style="fill:#313A75;stroke:#313A75;"/><polygon points="248,302 204,309 260,338" style="fill:#313A75;stroke:#313A75;"/><polygon points="236,271 204,309 248,302" style="fill:#313A75;stroke:#313A75;"/><polygon points="278,434 331,453 293,418" style="fill:#313A75;stroke:#313A75;"/><polygon points="331,453 352,445 293,418" style="fill:#313A75;stroke:#313A75;"/><polygon points="361,393 415,332 368,312" style="fill:#313A75;stroke:#313A75;"/><polygon points="368,312 390,249 352,279" style="fill:#313A75;stroke:#313A75;"/><polygon points="418,393 415,332 361,393" style="fill:#313A75;stroke:#313A75;"/><polygon points="215,450 250,455 256,374" style="fill:#313A75;stroke:#313A75;"/><polygon points="278,434 306,509 331,453" style="fill:#313A75;stroke:#313A75;"/><polygon points="352,279 318,227 290,262" style="fill:#313A75;stroke:#313A75;"/><polygon points="290,262 258,228 236,271" style="fill:#313A75;stroke:#313A75;"/><polygon points="358,236 318,227 352,279" style="fill:#313A75;stroke:#313A75;"/><polygon points="236,271 206,239 204,309" style="fill:#313A75;stroke:#313A75;"/><polygon points="318,227 258,228 290,262" style="fill:#313A75;stroke:#313A75;"/><polygon points="390,249 358,236 352,279" style="fill:#313A75;stroke:#313A75;"/><polygon points="201,351 187,409 256,374" style="fill:#313A75;stroke:#313A75;"/><polygon points="157,329 174,372 201,351" style="fill:#313A75;stroke:#313A75;"/><polygon points="174,372 187,409 201,351" style="fill:#313A75;stroke:#313A75;"/><polygon points="416,433 418,393 361,393" style="fill:#313A75;stroke:#313A75;"/><polygon points="187,409 215,450 256,374" style="fill:#313A75;stroke:#313A75;"/><polygon points="415,332 390,249 368,312" style="fill:#313A75;stroke:#313A75;"/><polygon points="215,450 244,475 250,455" style="fill:#313A75;stroke:#313A75;"/><polygon points="250,455 306,509 278,434" style="fill:#313A75;stroke:#313A75;"/><polygon points="258,228 206,239 236,271" style="fill:#313A75;stroke:#313A75;"/><polygon points="204,309 157,329 201,351" style="fill:#313A75;stroke:#313A75;"/><polygon points="145,259 157,329 204,309" style="fill:#313A75;stroke:#313A75;"/><polygon points="174,372 128,409 187,409" style="fill:#313A75;stroke:#313A75;"/><polygon points="397,497 352,445 331,453" style="fill:#313A75;stroke:#313A75;"/><polygon points="397,497 416,433 352,445" style="fill:#313A75;stroke:#313A75;"/><polygon points="352,445 416,433 361,393" style="fill:#313A75;stroke:#313A75;"/><polygon points="318,227 305,197 258,228" style="fill:#313A75;stroke:#313A75;"/><polygon points="258,228 249,196 206,239" style="fill:#313A75;stroke:#313A75;"/><polygon points="378,176 305,197 318,227" style="fill:#313A75;stroke:#313A75;"/><polygon points="378,176 318,227 358,236" style="fill:#313A75;stroke:#313A75;"/><polygon points="415,332 450,279 390,249" style="fill:#313A75;stroke:#313A75;"/><polygon points="418,393 448,327 415,332" style="fill:#313A75;stroke:#313A75;"/><polygon points="460,412 448,327 418,393" style="fill:#313A75;stroke:#313A75;"/><polygon points="448,327 451,316 415,332" style="fill:#313A75;stroke:#313A75;"/><polygon points="305,197 249,196 258,228" style="fill:#313A75;stroke:#313A75;"/><polygon points="244,475 306,509 250,455" style="fill:#313A75;stroke:#313A75;"/><polygon points="206,239 175,238 204,309" style="fill:#313A75;stroke:#313A75;"/><polygon points="186,208 175,238 206,239" style="fill:#313A75;stroke:#313A75;"/><polygon points="451,316 450,279 415,332" style="fill:#313A75;stroke:#313A75;"/><polygon points="390,249 420,206 358,236" style="fill:#313A75;stroke:#313A75;"/><polygon points="450,279 418,231 390,249" style="fill:#313A75;stroke:#313A75;"/><polygon points="416,433 460,412 418,393" style="fill:#313A75;stroke:#313A75;"/><polygon points="448,327 478,332 451,316" style="fill:#313A75;stroke:#313A75;"/><polygon points="451,316 490,273 450,279" style="fill:#313A75;stroke:#313A75;"/><polygon points="459,466 460,412 416,433" style="fill:#313A75;stroke:#313A75;"/><polygon points="175,238 145,259 204,309" style="fill:#313A75;stroke:#313A75;"/><polygon points="117,377 123,389 174,372" style="fill:#313A75;stroke:#313A75;"/><polygon points="145,259 127,299 157,329" style="fill:#313A75;stroke:#313A75;"/><polygon points="249,196 186,208 206,239" style="fill:#313A75;stroke:#313A75;"/><polygon points="175,238 138,221 145,259" style="fill:#313A75;stroke:#313A75;"/><polygon points="117,377 174,372 157,329" style="fill:#313A75;stroke:#313A75;"/><polygon points="187,409 147,478 215,450" style="fill:#313A75;stroke:#313A75;"/><polygon points="215,450 202,512 244,475" style="fill:#313A75;stroke:#313A75;"/><polygon points="306,509 397,497 331,453" style="fill:#313A75;stroke:#313A75;"/><polygon points="123,389 128,409 174,372" style="fill:#313A75;stroke:#313A75;"/><polygon points="460,412 478,332 448,327" style="fill:#313A75;stroke:#313A75;"/><polygon points="123,389 100,401 128,409" style="fill:#313A75;stroke:#313A75;"/><polygon points="83,335 117,377 157,329" style="fill:#313A75;stroke:#313A75;"/><polygon points="473,210 420,206 418,231" style="fill:#313A75;stroke:#313A75;"/><polygon points="418,231 420,206 390,249" style="fill:#313A75;stroke:#313A75;"/><polygon points="473,210 418,231 450,279" style="fill:#313A75;stroke:#313A75;"/><polygon points="249,196 218,174 186,208" style="fill:#313A75;stroke:#313A75;"/><polygon points="305,197 251,165 249,196" style="fill:#313A75;stroke:#313A75;"/><polygon points="279,150 251,165 305,197" style="fill:#313A75;stroke:#313A75;"/><polygon points="420,206 378,176 358,236" style="fill:#313A75;stroke:#313A75;"/><polygon points="251,165 218,174 249,196" style="fill:#313A75;stroke:#313A75;"/><polygon points="218,174 178,197 186,208" style="fill:#313A75;stroke:#313A75;"/><polygon points="186,208 178,197 175,238" style="fill:#313A75;stroke:#313A75;"/><polygon points="244,475 265,541 306,509" style="fill:#313A75;stroke:#313A75;"/><polygon points="147,478 202,512 215,450" style="fill:#313A75;stroke:#313A75;"/><polygon points="251,165 230,136 218,174" style="fill:#313A75;stroke:#313A75;"/><polygon points="340,153 279,150 305,197" style="fill:#313A75;stroke:#313A75;"/><polygon points="202,512 265,541 244,475" style="fill:#313A75;stroke:#313A75;"/><polygon points="306,509 379,572 397,497" style="fill:#313A75;stroke:#313A75;"/><polygon points="378,176 340,153 305,197" style="fill:#313A75;stroke:#313A75;"/><polygon points="128,409 147,478 187,409" style="fill:#313A75;stroke:#313A75;"/><polygon points="102,482 147,478 128,409" style="fill:#313A75;stroke:#313A75;"/><polygon points="460,412 499,375 478,332" style="fill:#313A75;stroke:#313A75;"/><polygon points="397,497 459,466 416,433" style="fill:#313A75;stroke:#313A75;"/><polygon points="145,259 91,267 127,299" style="fill:#2F3772;stroke:#2F3772;"/><polygon points="178,197 138,221 175,238" style="fill:#313A75;stroke:#313A75;"/><polygon points="504,432 499,375 460,412" style="fill:#313A75;stroke:#313A75;"/><polygon points="478,332 490,273 451,316" style="fill:#313A75;stroke:#313A75;"/><polygon points="117,377 100,401 123,389" style="fill:#313A75;stroke:#313A75;"/><polygon points="90,385 100,401 117,377" style="fill:#313A75;stroke:#313A75;"/><polygon points="90,385 117,377 83,335" style="fill:#313A75;stroke:#313A75;"/><polygon points="524,313 490,273 478,332" style="fill:#313A75;stroke:#313A75;"/><polygon points="178,197 170,183 138,221" style="fill:#313A75;stroke:#313A75;"/><polygon points="218,174 170,183 178,197" style="fill:#313A75;stroke:#313A75;"/><polygon points="186,141 170,183 218,174" style="fill:#313A75;stroke:#313A75;"/><polygon points="378,176 355,130 340,153" style="fill:#313A75;stroke:#313A75;"/><polygon points="420,206 425,180 378,176" style="fill:#313A75;stroke:#313A75;"/><polygon points="473,210 425,180 420,206" style="fill:#313A75;stroke:#313A75;"/><polygon points="80,452 102,482 128,409" style="fill:#313A75;stroke:#313A75;"/><polygon points="83,335 157,329 127,299" style="fill:#313A75;stroke:#313A75;"/><polygon points="71,308 83,335 127,299" style="fill:#2B346C;stroke:#2B346C;"/><polygon points="490,273 493,249 450,279" style="fill:#313A75;stroke:#313A75;"/><polygon points="554,239 493,249 563,260" style="fill:#2A326B;stroke:#2A326B;"/><polygon points="279,150 230,136 251,165" style="fill:#313A75;stroke:#313A75;"/><polygon points="287,110 230,136 279,150" style="fill:#313A75;stroke:#313A75;"/><polygon points="97,220 91,267 145,259" style="fill:#262E65;stroke:#262E65;"/><polygon points="97,220 145,259 138,221" style="fill:#313A75;stroke:#313A75;"/><polygon points="91,267 89,272 127,299" style="fill:#1B2356;stroke:#1B2356;"/><polygon points="493,249 473,210 450,279" style="fill:#313A75;stroke:#313A75;"/><polygon points="459,466 504,432 460,412" style="fill:#313A75;stroke:#313A75;"/><polygon points="499,375 524,313 478,332" style="fill:#313A75;stroke:#313A75;"/><polygon points="459,466 512,477 504,432" style="fill:#313A75;stroke:#313A75;"/><polygon points="397,497 456,504 459,466" style="fill:#313A75;stroke:#313A75;"/><polygon points="379,572 456,504 397,497" style="fill:#313A75;stroke:#313A75;"/><polygon points="340,153 304,120 279,150" style="fill:#313A75;stroke:#313A75;"/><polygon points="406,122 355,130 378,176" style="fill:#313A75;stroke:#313A75;"/><polygon points="350,106 355,130 390,96" style="fill:#313A75;stroke:#313A75;"/><polygon points="265,541 320,571 306,509" style="fill:#313A75;stroke:#313A75;"/><polygon points="202,512 258,567 265,541" style="fill:#2A336C;stroke:#2A336C;"/><polygon points="226,585 258,567 202,512" style="fill:#1B2356;stroke:#1B2356;"/><polygon points="473,210 471,168 425,180" style="fill:#313A75;stroke:#313A75;"/><polygon points="507,228 476,208 473,210" style="fill:#313A75;stroke:#313A75;"/><polygon points="258,567 320,571 265,541" style="fill:#252E64;stroke:#252E64;"/><polygon points="355,130 304,120 340,153" style="fill:#313A75;stroke:#313A75;"/><polygon points="544,378 524,313 499,375" style="fill:#313A75;stroke:#313A75;"/><polygon points="493,249 507,228 473,210" style="fill:#313A75;stroke:#313A75;"/><polygon points="83,335 56,384 90,385" style="fill:#313A75;stroke:#313A75;"/><polygon points="89,272 71,308 127,299" style="fill:#141C4D;stroke:#141C4D;"/><polygon points="38,316 71,308 37,285" style="fill:#0F1745;stroke:#0F1745;"/><polygon points="110,167 97,220 138,221" style="fill:#313A75;stroke:#313A75;"/><polygon points="206,131 186,141 218,174" style="fill:#313A75;stroke:#313A75;"/><polygon points="206,131 218,174 230,136" style="fill:#313A75;stroke:#313A75;"/><polygon points="200,116 206,131 238,102" style="fill:#313A75;stroke:#313A75;"/><polygon points="304,120 287,110 279,150" style="fill:#313A75;stroke:#313A75;"/><polygon points="307,77 287,110 304,120" style="fill:#51598E;stroke:#51598E;"/><polygon points="37,285 71,308 89,272" style="fill:#080F3B;stroke:#080F3B;"/><polygon points="133,165 138,221 170,183" style="fill:#313A75;stroke:#313A75;"/><polygon points="162,544 187,559 202,512" style="fill:#2F3873;stroke:#2F3873;"/><polygon points="80,452 128,409 100,401" style="fill:#313A75;stroke:#313A75;"/><polygon points="80,452 100,401 45,439" style="fill:#313A75;stroke:#313A75;"/><polygon points="162,544 202,512 147,478" style="fill:#313A75;stroke:#313A75;"/><polygon points="135,547 162,544 147,478" style="fill:#313A75;stroke:#313A75;"/><polygon points="320,571 379,572 306,509" style="fill:#313A75;stroke:#313A75;"/><polygon points="533,216 507,228 554,239" style="fill:#313A75;stroke:#313A75;"/><polygon points="186,141 148,157 170,183" style="fill:#313A75;stroke:#313A75;"/><polygon points="143,130 148,157 186,141" style="fill:#313A75;stroke:#313A75;"/><polygon points="56,384 100,401 90,385" style="fill:#313A75;stroke:#313A75;"/><polygon points="42,348 56,384 83,335" style="fill:#313A75;stroke:#313A75;"/><polygon points="148,157 133,165 170,183" style="fill:#313A75;stroke:#313A75;"/><polygon points="355,130 350,106 304,120" style="fill:#313A75;stroke:#313A75;"/><polygon points="406,122 378,176 425,180" style="fill:#313A75;stroke:#313A75;"/><polygon points="471,168 473,210 476,208" style="fill:#313A75;stroke:#313A75;"/><polygon points="541,428 544,378 499,375" style="fill:#313A75;stroke:#313A75;"/><polygon points="554,239 507,228 493,249" style="fill:#313A75;stroke:#313A75;"/><polygon points="541,428 499,375 504,432" style="fill:#313A75;stroke:#313A75;"/><polygon points="501,184 471,168 476,208" style="fill:#313A75;stroke:#313A75;"/><polygon points="429,124 406,122 425,180" style="fill:#313A75;stroke:#313A75;"/><polygon points="258,567 259,595 320,571" style="fill:#1E265A;stroke:#1E265A;"/><polygon points="320,571 345,620 379,572" style="fill:#313A75;stroke:#313A75;"/><polygon points="187,559 226,585 202,512" style="fill:#2B346E;stroke:#2B346E;"/><polygon points="163,587 226,585 187,559" style="fill:#1C255D;stroke:#1C255D;"/><polygon points="143,130 110,167 133,165" style="fill:#313A75;stroke:#313A75;"/><polygon points="206,131 200,116 186,141" style="fill:#313A75;stroke:#313A75;"/><polygon points="238,102 206,131 230,136" style="fill:#313A75;stroke:#313A75;"/><polygon points="456,504 512,477 459,466" style="fill:#313A75;stroke:#313A75;"/><polygon points="478,521 512,477 456,504" style="fill:#313A75;stroke:#313A75;"/><polygon points="379,572 478,521 456,504" style="fill:#313A75;stroke:#313A75;"/><polygon points="287,110 238,102 230,136" style="fill:#313A75;stroke:#313A75;"/><polygon points="274,72 238,102 287,110" style="fill:#6B73A2;stroke:#6B73A2;"/><polygon points="226,585 259,595 258,567" style="fill:#080F3B;stroke:#080F3B;"/><polygon points="478,521 515,477 512,477" style="fill:#313A75;stroke:#313A75;"/><polygon points="512,477 515,477 504,432" style="fill:#313A75;stroke:#313A75;"/><polygon points="78,493 104,513 102,482" style="fill:#313A75;stroke:#313A75;"/><polygon points="102,482 104,513 147,478" style="fill:#313A75;stroke:#313A75;"/><polygon points="162,544 163,587 187,559" style="fill:#1A235B;stroke:#1A235B;"/><polygon points="40,469 78,493 80,452" style="fill:#313A75;stroke:#313A75;"/><polygon points="38,316 42,348 83,335" style="fill:#313A75;stroke:#313A75;"/><polygon points="37,349 42,348 38,316" style="fill:#313A75;stroke:#313A75;"/><polygon points="515,477 541,428 504,432" style="fill:#313A75;stroke:#313A75;"/><polygon points="471,168 429,124 425,180" style="fill:#313A75;stroke:#313A75;"/><polygon points="406,122 390,96 355,130" style="fill:#313A75;stroke:#313A75;"/><polygon points="104,513 135,547 147,478" style="fill:#313A75;stroke:#313A75;"/><polygon points="38,316 83,335 71,308" style="fill:#313974;stroke:#313974;"/><polygon points="133,165 110,167 138,221" style="fill:#313A75;stroke:#313A75;"/><polygon points="143,130 133,165 148,157" style="fill:#313A75;stroke:#313A75;"/><polygon points="507,228 501,184 476,208" style="fill:#313A75;stroke:#313A75;"/><polygon points="471,168 481,140 429,124" style="fill:#313A75;stroke:#313A75;"/><polygon points="533,216 501,184 507,228" style="fill:#313A75;stroke:#313A75;"/><polygon points="42,348 37,349 56,384" style="fill:#313A75;stroke:#313A75;"/><polygon points="80,452 78,493 102,482" style="fill:#313A75;stroke:#313A75;"/><polygon points="89,272 91,267 53,254" style="fill:#080F3B;stroke:#080F3B;"/><polygon points="53,254 91,267 97,220" style="fill:#080F3B;stroke:#080F3B;"/><polygon points="52,226 53,254 97,220" style="fill:#0A113D;stroke:#0A113D;"/><polygon points="104,513 75,566 135,547" style="fill:#363F79;stroke:#363F79;"/><polygon points="45,439 100,401 56,384" style="fill:#313A75;stroke:#313A75;"/><polygon points="200,116 143,130 186,141" style="fill:#313A75;stroke:#313A75;"/><polygon points="126,110 143,130 164,72" style="fill:#3E4780;stroke:#3E4780;"/><polygon points="429,124 390,96 406,122" style="fill:#313A75;stroke:#313A75;"/><polygon points="350,106 307,77 304,120" style="fill:#38407A;stroke:#38407A;"/><polygon points="0,326 22,389 37,349" style="fill:#313A75;stroke:#313A75;"/><polygon points="53,254 37,285 89,272" style="fill:#080F3B;stroke:#080F3B;"/><polygon points="493,249 490,273 563,260" style="fill:#303974;stroke:#303974;"/><polygon points="22,389 45,439 56,384" style="fill:#313A75;stroke:#313A75;"/><polygon points="319,59 307,77 341,59" style="fill:#323B76;stroke:#323B76;"/><polygon points="213,61 180,77 200,116" style="fill:#4B548C;stroke:#4B548C;"/><polygon points="53,254 0,263 37,285" style="fill:#0D1442;stroke:#0D1442;"/><polygon points="110,167 92,169 97,220" style="fill:#212A63;stroke:#212A63;"/><polygon points="76,138 92,169 110,167" style="fill:#1B245B;stroke:#1B245B;"/><polygon points="69,189 52,226 97,220" style="fill:#29326C;stroke:#29326C;"/><polygon points="307,77 274,72 287,110" style="fill:#787FAC;stroke:#787FAC;"/><polygon points="135,547 163,587 162,544" style="fill:#262F69;stroke:#262F69;"/><polygon points="226,585 243,620 259,595" style="fill:#141C4C;stroke:#141C4C;"/><polygon points="91,582 163,587 135,547" style="fill:#454E86;stroke:#454E86;"/><polygon points="481,103 481,140 530,108" style="fill:#313A75;stroke:#313A75;"/><polygon points="501,184 481,140 471,168" style="fill:#313A75;stroke:#313A75;"/><polygon points="429,66 394,67 390,96" style="fill:#313A75;stroke:#313A75;"/><polygon points="515,477 545,471 541,428" style="fill:#313A75;stroke:#313A75;"/><polygon points="585,343 524,313 544,378" style="fill:#313A75;stroke:#313A75;"/><polygon points="561,512 545,471 515,477" style="fill:#2E3772;stroke:#2E3772;"/><polygon points="92,169 69,189 97,220" style="fill:#1B245C;stroke:#1B245C;"/><polygon points="243,620 345,620 259,595" style="fill:#2D356F;stroke:#2D356F;"/><polygon points="259,595 345,620 320,571" style="fill:#2F3872;stroke:#2F3872;"/><polygon points="379,572 488,574 478,521" style="fill:#4E568C;stroke:#4E568C;"/><polygon points="536,149 481,140 501,184" style="fill:#313A75;stroke:#313A75;"/><polygon points="563,260 490,273 524,313" style="fill:#2F3873;stroke:#2F3873;"/><polygon points="563,260 524,313 575,292" style="fill:#2C346D;stroke:#2C346D;"/><polygon points="37,349 22,389 56,384" style="fill:#313A75;stroke:#313A75;"/><polygon points="0,326 37,349 38,316" style="fill:#313A75;stroke:#313A75;"/><polygon points="575,292 524,313 585,343" style="fill:#313A75;stroke:#313A75;"/><polygon points="184,620 243,620 226,585" style="fill:#2B346D;stroke:#2B346D;"/><polygon points="585,343 544,378 584,383" style="fill:#313A75;stroke:#313A75;"/><polygon points="44,535 75,566 104,513" style="fill:#323B76;stroke:#323B76;"/><polygon points="45,439 40,469 80,452" style="fill:#313A75;stroke:#313A75;"/><polygon points="15,472 40,469 45,439" style="fill:#313A75;stroke:#313A75;"/><polygon points="584,383 544,378 541,428" style="fill:#313A75;stroke:#313A75;"/><polygon points="307,77 285,38 274,72" style="fill:#7C83AF;stroke:#7C83AF;"/><polygon points="341,59 307,77 350,106" style="fill:#313A75;stroke:#313A75;"/><polygon points="341,59 350,106 390,96" style="fill:#313A75;stroke:#313A75;"/><polygon points="578,431 584,383 541,428" style="fill:#1D2558;stroke:#1D2558;"/><polygon points="50,180 33,230 52,226" style="fill:#222A61;stroke:#222A61;"/><polygon points="52,226 33,230 53,254" style="fill:#080F3B;stroke:#080F3B;"/><polygon points="37,285 0,326 38,316" style="fill:#1D2659;stroke:#1D2659;"/><polygon points="394,67 341,59 390,96" style="fill:#313A75;stroke:#313A75;"/><polygon points="143,130 126,110 110,167" style="fill:#313A75;stroke:#313A75;"/><polygon points="92,169 50,180 69,189" style="fill:#182158;stroke:#182158;"/><polygon points="69,189 50,180 52,226" style="fill:#1E275F;stroke:#1E275F;"/><polygon points="180,77 143,130 200,116" style="fill:#3B447E;stroke:#3B447E;"/><polygon points="200,116 238,102 213,61" style="fill:#404880;stroke:#404880;"/><polygon points="545,471 578,431 541,428" style="fill:#1A2255;stroke:#1A2255;"/><polygon points="213,61 238,102 274,72" style="fill:#777EAB;stroke:#777EAB;"/><polygon points="429,66 390,96 429,124" style="fill:#313A75;stroke:#313A75;"/><polygon points="163,587 184,620 226,585" style="fill:#212A63;stroke:#212A63;"/><polygon points="106,620 184,620 163,587" style="fill:#2D3670;stroke:#2D3670;"/><polygon points="415,620 488,574 379,572" style="fill:#5A6295;stroke:#5A6295;"/><polygon points="478,521 535,544 515,477" style="fill:#313A75;stroke:#313A75;"/><polygon points="545,471 585,470 578,431" style="fill:#121A49;stroke:#121A49;"/><polygon points="247,37 213,61 274,72" style="fill:#787FAC;stroke:#787FAC;"/><polygon points="345,620 415,620 379,572" style="fill:#313A75;stroke:#313A75;"/><polygon points="76,138 50,180 92,169" style="fill:#182158;stroke:#182158;"/><polygon points="0,263 53,254 33,230" style="fill:#0D1442;stroke:#0D1442;"/><polygon points="0,263 0,326 37,285" style="fill:#222A60;stroke:#222A60;"/><polygon points="22,389 0,409 45,439" style="fill:#313A75;stroke:#313A75;"/><polygon points="102,98 76,138 126,110" style="fill:#2A336C;stroke:#2A336C;"/><polygon points="126,110 76,138 110,167" style="fill:#27306A;stroke:#27306A;"/><polygon points="0,326 0,409 22,389" style="fill:#313A75;stroke:#313A75;"/><polygon points="481,140 481,103 429,124" style="fill:#313A75;stroke:#313A75;"/><polygon points="536,149 501,184 563,184" style="fill:#2F3873;stroke:#2F3873;"/><polygon points="180,77 164,72 143,130" style="fill:#49528A;stroke:#49528A;"/><polygon points="182,53 164,72 180,77" style="fill:#525B92;stroke:#525B92;"/><polygon points="213,61 182,53 180,77" style="fill:#505991;stroke:#505991;"/><polygon points="319,59 285,38 307,77" style="fill:#6C74A3;stroke:#6C74A3;"/><polygon points="341,0 285,38 319,59" style="fill:#495188;stroke:#495188;"/><polygon points="341,0 319,59 341,59" style="fill:#313A75;stroke:#313A75;"/><polygon points="488,574 535,544 478,521" style="fill:#3B447E;stroke:#3B447E;"/><polygon points="0,172 0,263 33,230" style="fill:#29326A;stroke:#29326A;"/><polygon points="40,469 30,507 78,493" style="fill:#313A75;stroke:#313A75;"/><polygon points="0,409 15,472 45,439" style="fill:#313A75;stroke:#313A75;"/><polygon points="563,184 501,184 533,216" style="fill:#2F3873;stroke:#2F3873;"/><polygon points="563,184 533,216 554,239" style="fill:#29326B;stroke:#29326B;"/><polygon points="563,184 554,239 592,191" style="fill:#1F275F;stroke:#1F275F;"/><polygon points="394,67 392,36 341,59" style="fill:#313A75;stroke:#313A75;"/><polygon points="481,103 429,66 429,124" style="fill:#313A75;stroke:#313A75;"/><polygon points="554,239 563,260 604,213" style="fill:#0B1240;stroke:#0B1240;"/><polygon points="592,191 554,239 602,205" style="fill:#232B63;stroke:#232B63;"/><polygon points="535,544 561,512 515,477" style="fill:#2F3873;stroke:#2F3873;"/><polygon points="15,472 30,507 40,469" style="fill:#313A75;stroke:#313A75;"/><polygon points="44,535 104,513 78,493" style="fill:#313A75;stroke:#313A75;"/><polygon points="583,505 585,470 545,471" style="fill:#262F69;stroke:#262F69;"/><polygon points="622,406 622,334 584,383" style="fill:#313A75;stroke:#313A75;"/><polygon points="584,383 622,334 585,343" style="fill:#313A75;stroke:#313A75;"/><polygon points="285,38 247,37 274,72" style="fill:#7C83AF;stroke:#7C83AF;"/><polygon points="75,566 91,582 135,547" style="fill:#4E578E;stroke:#4E578E;"/><polygon points="247,37 211,45 213,61" style="fill:#545C90;stroke:#545C90;"/><polygon points="50,180 0,172 33,230" style="fill:#202961;stroke:#202961;"/><polygon points="51,141 39,169 50,180" style="fill:#182158;stroke:#182158;"/><polygon points="101,68 102,98 126,110" style="fill:#313A75;stroke:#313A75;"/><polygon points="211,45 182,53 213,61" style="fill:#464F87;stroke:#464F87;"/><polygon points="142,54 126,110 164,72" style="fill:#515A91;stroke:#515A91;"/><polygon points="76,138 51,141 50,180" style="fill:#182158;stroke:#182158;"/><polygon points="30,507 44,535 78,493" style="fill:#313A75;stroke:#313A75;"/><polygon points="563,184 539,141 536,149" style="fill:#2D3670;stroke:#2D3670;"/><polygon points="536,149 539,141 481,140" style="fill:#313A75;stroke:#313A75;"/><polygon points="408,30 394,67 429,66" style="fill:#313A75;stroke:#313A75;"/><polygon points="53,117 51,141 76,138" style="fill:#182158;stroke:#182158;"/><polygon points="444,45 429,66 481,103" style="fill:#313A75;stroke:#313A75;"/><polygon points="408,30 392,36 394,67" style="fill:#313A75;stroke:#313A75;"/><polygon points="285,38 262,0 247,37" style="fill:#7077A6;stroke:#7077A6;"/><polygon points="585,343 622,334 575,292" style="fill:#313A75;stroke:#313A75;"/><polygon points="622,406 584,383 578,431" style="fill:#272F66;stroke:#272F66;"/><polygon points="488,574 527,578 535,544" style="fill:#505990;stroke:#505990;"/><polygon points="577,547 583,505 561,512" style="fill:#1B245B;stroke:#1B245B;"/><polygon points="561,512 583,505 545,471" style="fill:#1B245B;stroke:#1B245B;"/><polygon points="502,620 527,578 488,574" style="fill:#4E578E;stroke:#4E578E;"/><polygon points="585,470 622,406 578,431" style="fill:#101847;stroke:#101847;"/><polygon points="577,547 561,512 535,544" style="fill:#27306A;stroke:#27306A;"/><polygon points="0,579 32,571 44,535" style="fill:#646B9C;stroke:#646B9C;"/><polygon points="15,472 0,483 30,507" style="fill:#313A75;stroke:#313A75;"/><polygon points="0,409 0,483 15,472" style="fill:#313A75;stroke:#313A75;"/><polygon points="622,491 622,406 585,470" style="fill:#2B336C;stroke:#2B336C;"/><polygon points="81,89 53,117 76,138" style="fill:#28316B;stroke:#28316B;"/><polygon points="182,53 142,54 164,72" style="fill:#525B92;stroke:#525B92;"/><polygon points="139,37 142,54 182,53" style="fill:#525B92;stroke:#525B92;"/><polygon points="139,37 182,53 185,0" style="fill:#4E578F;stroke:#4E578F;"/><polygon points="530,108 505,87 481,103" style="fill:#313A75;stroke:#313A75;"/><polygon points="539,141 530,108 481,140" style="fill:#313A75;stroke:#313A75;"/><polygon points="581,101 560,105 539,141" style="fill:#4B548C;stroke:#4B548C;"/><polygon points="604,213 563,260 622,260" style="fill:#161D4E;stroke:#161D4E;"/><polygon points="560,105 530,108 539,141" style="fill:#343D78;stroke:#343D78;"/><polygon points="622,260 563,260 575,292" style="fill:#192052;stroke:#192052;"/><polygon points="91,582 106,620 163,587" style="fill:#454E86;stroke:#454E86;"/><polygon points="25,620 106,620 91,582" style="fill:#39427C;stroke:#39427C;"/><polygon points="25,620 91,582 75,566" style="fill:#51598E;stroke:#51598E;"/><polygon points="32,571 75,566 44,535" style="fill:#666D9E;stroke:#666D9E;"/><polygon points="505,87 444,45 481,103" style="fill:#313A75;stroke:#313A75;"/><polygon points="444,45 408,30 429,66" style="fill:#313A75;stroke:#313A75;"/><polygon points="341,0 262,0 285,38" style="fill:#4C548A;stroke:#4C548A;"/><polygon points="37,116 0,172 39,169" style="fill:#1C255D;stroke:#1C255D;"/><polygon points="39,169 0,172 50,180" style="fill:#1B245C;stroke:#1B245C;"/><polygon points="81,89 76,138 102,98" style="fill:#2C3570;stroke:#2C3570;"/><polygon points="604,213 602,205 554,239" style="fill:#252E64;stroke:#252E64;"/><polygon points="622,334 622,260 575,292" style="fill:#313A75;stroke:#313A75;"/><polygon points="604,213 622,190 602,205" style="fill:#303974;stroke:#303974;"/><polygon points="101,68 81,89 102,98" style="fill:#313A75;stroke:#313A75;"/><polygon points="142,54 101,68 126,110" style="fill:#464F88;stroke:#464F88;"/><polygon points="30,95 37,116 53,117" style="fill:#313A75;stroke:#313A75;"/><polygon points="527,578 577,547 535,544" style="fill:#363F79;stroke:#363F79;"/><polygon points="415,620 502,620 488,574" style="fill:#3D467F;stroke:#3D467F;"/><polygon points="583,505 622,491 585,470" style="fill:#232C65;stroke:#232C65;"/><polygon points="585,589 577,547 527,578" style="fill:#323B76;stroke:#323B76;"/><polygon points="37,116 39,169 51,141" style="fill:#182158;stroke:#182158;"/><polygon points="142,54 122,41 101,68" style="fill:#464F87;stroke:#464F87;"/><polygon points="185,0 182,53 211,45" style="fill:#4E578E;stroke:#4E578E;"/><polygon points="185,0 211,45 247,37" style="fill:#495188;stroke:#495188;"/><polygon points="53,117 37,116 51,141" style="fill:#1D265D;stroke:#1D265D;"/><polygon points="59,77 53,117 81,89" style="fill:#313A75;stroke:#313A75;"/><polygon points="59,77 81,89 66,65" style="fill:#313A75;stroke:#313A75;"/><polygon points="0,579 44,535 30,507" style="fill:#373F79;stroke:#373F79;"/><polygon points="341,0 341,59 392,36" style="fill:#313A75;stroke:#313A75;"/><polygon points="427,0 341,0 392,36" style="fill:#313A75;stroke:#313A75;"/><polygon points="427,0 392,36 408,30" style="fill:#313A75;stroke:#313A75;"/><polygon points="139,37 122,41 142,54" style="fill:#525B92;stroke:#525B92;"/><polygon points="83,31 122,41 97,0" style="fill:#313A75;stroke:#313A75;"/><polygon points="577,547 622,491 583,505" style="fill:#1E275F;stroke:#1E275F;"/><polygon points="581,101 563,184 592,191" style="fill:#273068;stroke:#273068;"/><polygon points="581,101 539,141 563,184" style="fill:#374078;stroke:#374078;"/><polygon points="530,108 519,60 505,87" style="fill:#313A75;stroke:#313A75;"/><polygon points="505,87 519,60 444,45" style="fill:#313A75;stroke:#313A75;"/><polygon points="66,65 81,89 101,68" style="fill:#313A75;stroke:#313A75;"/><polygon points="37,116 0,81 0,172" style="fill:#2C3570;stroke:#2C3570;"/><polygon points="602,205 622,190 592,191" style="fill:#252E67;stroke:#252E67;"/><polygon points="622,260 622,190 604,213" style="fill:#313A75;stroke:#313A75;"/><polygon points="444,45 427,0 408,30" style="fill:#313A75;stroke:#313A75;"/><polygon points="560,105 519,60 530,108" style="fill:#333C77;stroke:#333C77;"/><polygon points="262,0 185,0 247,37" style="fill:#4A5288;stroke:#4A5288;"/><polygon points="83,31 66,65 101,68" style="fill:#313A75;stroke:#313A75;"/><polygon points="83,31 101,68 122,41" style="fill:#313A75;stroke:#313A75;"/><polygon points="59,77 30,95 53,117" style="fill:#313A75;stroke:#313A75;"/><polygon points="20,60 30,95 59,77" style="fill:#313A75;stroke:#313A75;"/><polygon points="481,0 427,0 444,45" style="fill:#313A75;stroke:#313A75;"/><polygon points="560,105 558,47 519,60" style="fill:#3C457E;stroke:#3C457E;"/><polygon points="622,190 581,101 592,191" style="fill:#2C356E;stroke:#2C356E;"/><polygon points="577,547 622,585 622,491" style="fill:#2F3872;stroke:#2F3872;"/><polygon points="561,620 585,589 527,578" style="fill:#323B76;stroke:#323B76;"/><polygon points="0,483 0,579 30,507" style="fill:#313A75;stroke:#313A75;"/><polygon points="32,571 25,620 75,566" style="fill:#737AA8;stroke:#737AA8;"/><polygon points="502,620 561,620 527,578" style="fill:#3B447E;stroke:#3B447E;"/><polygon points="66,65 56,46 59,77" style="fill:#313A75;stroke:#313A75;"/><polygon points="97,0 122,41 139,37" style="fill:#434C85;stroke:#434C85;"/><polygon points="83,31 56,46 66,65" style="fill:#313A75;stroke:#313A75;"/><polygon points="0,579 25,620 32,571" style="fill:#5D6597;stroke:#5D6597;"/><polygon points="519,60 518,28 444,45" style="fill:#313A75;stroke:#313A75;"/><polygon points="558,47 518,28 519,60" style="fill:#323B76;stroke:#323B76;"/><polygon points="518,28 481,0 444,45" style="fill:#313A75;stroke:#313A75;"/><polygon points="518,28 578,0 481,0" style="fill:#313A75;stroke:#313A75;"/><polygon points="588,61 558,47 560,105" style="fill:#575F93;stroke:#575F93;"/><polygon points="588,61 560,105 581,101" style="fill:#49528A;stroke:#49528A;"/><polygon points="30,95 0,81 37,116" style="fill:#313A75;stroke:#313A75;"/><polygon points="20,60 0,81 30,95" style="fill:#313A75;stroke:#313A75;"/><polygon points="56,46 20,60 59,77" style="fill:#313A75;stroke:#313A75;"/><polygon points="33,32 20,60 56,46" style="fill:#313A75;stroke:#313A75;"/><polygon points="83,31 33,32 56,46" style="fill:#313A75;stroke:#313A75;"/><polygon points="185,0 97,0 139,37" style="fill:#3D467F;stroke:#3D467F;"/><polygon points="585,589 622,585 577,547" style="fill:#313A75;stroke:#313A75;"/><polygon points="622,620 622,585 585,589" style="fill:#313A75;stroke:#313A75;"/><polygon points="0,579 0,620 25,620" style="fill:#313A75;stroke:#313A75;"/><polygon points="595,58 588,61 622,81" style="fill:#5C6496;stroke:#5C6496;"/><polygon points="558,47 565,26 518,28" style="fill:#4D558B;stroke:#4D558B;"/><polygon points="97,0 33,32 83,31" style="fill:#313A75;stroke:#313A75;"/><polygon points="20,60 0,6 0,81" style="fill:#313A75;stroke:#313A75;"/><polygon points="622,81 588,61 581,101" style="fill:#3F4881;stroke:#3F4881;"/><polygon points="588,61 565,26 558,47" style="fill:#7C83AF;stroke:#7C83AF;"/><polygon points="595,58 565,26 588,61" style="fill:#7C83AF;stroke:#7C83AF;"/><polygon points="614,20 578,0 565,26" style="fill:#575F93;stroke:#575F93;"/><polygon points="622,190 622,81 581,101" style="fill:#3B447E;stroke:#3B447E;"/><polygon points="561,620 622,620 585,589" style="fill:#313A75;stroke:#313A75;"/><polygon points="565,26 578,0 518,28" style="fill:#475086;stroke:#475086;"/><polygon points="614,20 565,26 595,58" style="fill:#747CA9;stroke:#747CA9;"/><polygon points="97,0 16,0 33,32" style="fill:#313A75;stroke:#313A75;"/><polygon points="33,32 0,6 20,60" style="fill:#313A75;stroke:#313A75;"/><polygon points="16,0 0,6 33,32" style="fill:#313A75;stroke:#313A75;"/><polygon points="622,81 614,20 595,58" style="fill:#3D467E;stroke:#3D467E;"/><polygon points="16,0 0,0 0,6" style="fill:#313A75;stroke:#313A75;"/><polygon points="614,20 622,2 578,0" style="fill:#313A75;stroke:#313A75;"/><polygon points="622,81 622,2 614,20" style="fill:#313A75;stroke:#313A75;"/><polygon points="622,2 622,0 578,0" style="fill:#313A75;stroke:#313A75;"/></g></svg>