<?xml version="1.0" encoding="iso-8859-1"?><!DOCTYPE svg PUBLIC "-//W3C//DTD SVG 1.1//EN" "http://www.w3.org/Graphics/SVG/1.1/DTD/svg11.dtd"><svg version="1.1" xmlns="http://www.w3.org/2000/svg" xmlns:xlink="http://www.w3.org/1999/xlink" x="0px" y="0px" width="619" height="620" viewBox="0 0 619 620" enable-background="new 0 0 619 620" xml:space="preserve"><g><polygon points="269,317 241,307 281,345" style="fill:#AA3939;stroke:#AA3939;"/><polygon points="241,307 175,325 281,345" style="fill:#AA3939;stroke:#AA3939;"/><polygon points="175,325 273,415 281,345" style="fill:#AA3939;stroke:#AA3939;"/><polygon points="281,345 342,341 269,317" style="fill:#AA3939;stroke:#AA3939;"/><polygon points="269,317 313,249 241,307" style="fill:#AA3939;stroke:#AA3939;"/><polygon points="302,432 342,341 281,345" style="fill:#AA3939;stroke:#AA3939;"/><polygon points="273,415 302,432 281,345" style="fill:#AA3939;stroke:#AA3939;"/><polygon points="342,341 326,262 269,317" style="fill:#AA3939;stroke:#AA3939;"/><polygon points="241,307 161,255 175,325" style="fill:#AA3939;stroke:#AA3939;"/><polygon points="326,262 313,249 269,317" style="fill:#AA3939;stroke:#AA3939;"/><polygon points="175,325 163,433 273,415" style="fill:#AA3939;stroke:#AA3939;"/><polygon points="273,415 199,497 302,432" style="fill:#AA3939;stroke:#AA3939;"/><polygon points="234,220 161,255 241,307" style="fill:#AA3939;stroke:#AA3939;"/><polygon points="175,325 98,383 163,433" style="fill:#AA3939;stroke:#AA3939;"/><polygon points="313,249 246,221 241,307" style="fill:#AA3939;stroke:#AA3939;"/><polygon points="246,221 234,220 241,307" style="fill:#AA3939;stroke:#AA3939;"/><polygon points="342,341 369,331 326,262" style="fill:#AA3939;stroke:#AA3939;"/><polygon points="386,449 369,331 342,341" style="fill:#AA3939;stroke:#AA3939;"/><polygon points="161,255 98,383 175,325" style="fill:#AA3939;stroke:#AA3939;"/><polygon points="369,331 392,291 326,262" style="fill:#AA3939;stroke:#AA3939;"/><polygon points="326,262 313,188 313,249" style="fill:#AA3939;stroke:#AA3939;"/><polygon points="163,433 199,497 273,415" style="fill:#AA3939;stroke:#AA3939;"/><polygon points="80,537 199,497 163,433" style="fill:#AA3939;stroke:#AA3939;"/><polygon points="280,104 175,143 234,220" style="fill:#AA3939;stroke:#AA3939;"/><polygon points="313,249 313,188 246,221" style="fill:#AA3939;stroke:#AA3939;"/><polygon points="345,157 313,188 421,215" style="fill:#AA3939;stroke:#AA3939;"/><polygon points="302,432 386,449 342,341" style="fill:#AA3939;stroke:#AA3939;"/><polygon points="369,331 469,293 392,291" style="fill:#AA3939;stroke:#AA3939;"/><polygon points="326,505 386,449 302,432" style="fill:#AA3939;stroke:#AA3939;"/><polygon points="199,497 326,505 302,432" style="fill:#AA3939;stroke:#AA3939;"/><polygon points="161,255 0,337 98,383" style="fill:#A33535;stroke:#A33535;"/><polygon points="234,220 130,181 161,255" style="fill:#AA3939;stroke:#AA3939;"/><polygon points="175,143 130,181 234,220" style="fill:#AA3939;stroke:#AA3939;"/><polygon points="426,521 446,398 386,449" style="fill:#AA3939;stroke:#AA3939;"/><polygon points="386,449 446,398 369,331" style="fill:#AA3939;stroke:#AA3939;"/><polygon points="280,104 234,220 246,221" style="fill:#AA3939;stroke:#AA3939;"/><polygon points="421,215 313,188 326,262" style="fill:#AA3939;stroke:#AA3939;"/><polygon points="313,188 280,104 246,221" style="fill:#AA3939;stroke:#AA3939;"/><polygon points="421,215 326,262 392,291" style="fill:#AA3939;stroke:#AA3939;"/><polygon points="242,620 340,541 326,505" style="fill:#A23434;stroke:#A23434;"/><polygon points="326,505 426,521 386,449" style="fill:#AA3939;stroke:#AA3939;"/><polygon points="469,293 421,215 392,291" style="fill:#AA3939;stroke:#AA3939;"/><polygon points="446,398 469,293 369,331" style="fill:#AA3939;stroke:#AA3939;"/><polygon points="340,121 313,188 345,157" style="fill:#AA3939;stroke:#AA3939;"/><polygon points="340,121 280,104 313,188" style="fill:#AA3939;stroke:#AA3939;"/><polygon points="0,246 0,337 161,255" style="fill:#741515;stroke:#741515;"/><polygon points="98,383 80,537 163,433" style="fill:#AA3939;stroke:#AA3939;"/><polygon points="365,89 340,121 345,157" style="fill:#AA3939;stroke:#AA3939;"/><polygon points="199,497 242,620 326,505" style="fill:#922929;stroke:#922929;"/><polygon points="0,416 80,537 98,383" style="fill:#AA3939;stroke:#AA3939;"/><polygon points="0,337 0,416 98,383" style="fill:#AA3939;stroke:#AA3939;"/><polygon points="340,541 426,521 326,505" style="fill:#AA3939;stroke:#AA3939;"/><polygon points="446,398 528,274 469,293" style="fill:#AA3939;stroke:#AA3939;"/><polygon points="0,161 0,246 130,181" style="fill:#8F2323;stroke:#8F2323;"/><polygon points="130,181 0,246 161,255" style="fill:#8B2424;stroke:#8B2424;"/><polygon points="340,541 412,620 426,521" style="fill:#B14242;stroke:#B14242;"/><polygon points="179,620 242,620 199,497" style="fill:#992C2C;stroke:#992C2C;"/><polygon points="80,537 179,620 199,497" style="fill:#A43535;stroke:#A43535;"/><polygon points="340,121 365,89 280,104" style="fill:#AD3E3E;stroke:#AD3E3E;"/><polygon points="472,150 365,89 345,157" style="fill:#AA3939;stroke:#AA3939;"/><polygon points="472,150 345,157 421,215" style="fill:#AA3939;stroke:#AA3939;"/><polygon points="175,143 92,53 130,181" style="fill:#AD3C3C;stroke:#AD3C3C;"/><polygon points="280,104 185,66 175,143" style="fill:#C05555;stroke:#C05555;"/><polygon points="248,0 185,66 280,104" style="fill:#EB8F8F;stroke:#EB8F8F;"/><polygon points="242,620 323,620 340,541" style="fill:#A93838;stroke:#A93838;"/><polygon points="469,293 480,174 421,215" style="fill:#AA3939;stroke:#AA3939;"/><polygon points="0,416 0,508 80,537" style="fill:#AA3939;stroke:#AA3939;"/><polygon points="80,537 90,620 179,620" style="fill:#C05353;stroke:#C05353;"/><polygon points="469,293 528,274 480,174" style="fill:#AA3939;stroke:#AA3939;"/><polygon points="619,348 528,274 446,398" style="fill:#AA3939;stroke:#AA3939;"/><polygon points="480,174 472,150 421,215" style="fill:#AA3939;stroke:#AA3939;"/><polygon points="593,182 472,150 480,174" style="fill:#A43434;stroke:#A43434;"/><polygon points="92,53 0,161 130,181" style="fill:#942727;stroke:#942727;"/><polygon points="0,580 90,620 80,537" style="fill:#DB7A7A;stroke:#DB7A7A;"/><polygon points="426,521 556,454 446,398" style="fill:#AA3939;stroke:#AA3939;"/><polygon points="323,620 412,620 340,541" style="fill:#AA3939;stroke:#AA3939;"/><polygon points="185,66 92,53 175,143" style="fill:#C75A5A;stroke:#C75A5A;"/><polygon points="107,0 92,53 185,66" style="fill:#C35757;stroke:#C35757;"/><polygon points="503,620 556,454 426,521" style="fill:#B34444;stroke:#B34444;"/><polygon points="0,508 0,580 80,537" style="fill:#B64949;stroke:#B64949;"/><polygon points="328,0 248,0 280,104" style="fill:#E48686;stroke:#E48686;"/><polygon points="328,0 280,104 365,89" style="fill:#BB5050;stroke:#BB5050;"/><polygon points="92,53 0,94 0,161" style="fill:#A73636;stroke:#A73636;"/><polygon points="472,150 437,53 365,89" style="fill:#AA3939;stroke:#AA3939;"/><polygon points="544,65 437,53 472,150" style="fill:#AA3939;stroke:#AA3939;"/><polygon points="92,53 16,0 0,94" style="fill:#AA3939;stroke:#AA3939;"/><polygon points="248,0 179,0 185,66" style="fill:#BD5050;stroke:#BD5050;"/><polygon points="420,0 328,0 365,89" style="fill:#AA3939;stroke:#AA3939;"/><polygon points="0,580 12,620 90,620" style="fill:#B94C4C;stroke:#B94C4C;"/><polygon points="0,580 0,620 12,620" style="fill:#AA3939;stroke:#AA3939;"/><polygon points="179,0 107,0 185,66" style="fill:#C25555;stroke:#C25555;"/><polygon points="528,274 593,182 480,174" style="fill:#A13232;stroke:#A13232;"/><polygon points="556,454 619,348 446,398" style="fill:#A23333;stroke:#A23333;"/><polygon points="556,454 619,409 619,348" style="fill:#8E2626;stroke:#8E2626;"/><polygon points="412,620 503,620 426,521" style="fill:#D47070;stroke:#D47070;"/><polygon points="619,507 619,409 556,454" style="fill:#8A2424;stroke:#8A2424;"/><polygon points="619,348 619,262 528,274" style="fill:#A23333;stroke:#A23333;"/><polygon points="619,262 593,182 528,274" style="fill:#771616;stroke:#771616;"/><polygon points="497,0 420,0 437,53" style="fill:#AA3939;stroke:#AA3939;"/><polygon points="437,53 420,0 365,89" style="fill:#AA3939;stroke:#AA3939;"/><polygon points="568,620 619,507 556,454" style="fill:#982A2A;stroke:#982A2A;"/><polygon points="593,182 544,65 472,150" style="fill:#A93A3A;stroke:#A93A3A;"/><polygon points="619,262 619,180 593,182" style="fill:#A63636;stroke:#A63636;"/><polygon points="619,98 544,65 593,182" style="fill:#BD5151;stroke:#BD5151;"/><polygon points="107,0 16,0 92,53" style="fill:#AA3939;stroke:#AA3939;"/><polygon points="16,0 0,8 0,94" style="fill:#AA3939;stroke:#AA3939;"/><polygon points="16,0 0,0 0,8" style="fill:#AA3939;stroke:#AA3939;"/><polygon points="503,620 568,620 556,454" style="fill:#AC3C3C;stroke:#AC3C3C;"/><polygon points="544,65 497,0 437,53" style="fill:#AA3939;stroke:#AA3939;"/><polygon points="568,620 619,589 619,507" style="fill:#AA3939;stroke:#AA3939;"/><polygon points="544,65 589,0 497,0" style="fill:#BA4F4F;stroke:#BA4F4F;"/><polygon points="619,180 619,98 593,182" style="fill:#A63636;stroke:#A63636;"/><polygon points="568,620 619,620 619,589" style="fill:#AA3939;stroke:#AA3939;"/><polygon points="619,14 589,0 544,65" style="fill:#E18282;stroke:#E18282;"/><polygon points="619,98 619,14 544,65" style="fill:#CD6868;stroke:#CD6868;"/><polygon points="619,14 619,0 589,0" style="fill:#AA3939;stroke:#AA3939;"/></g></svg>