<svg xmlns="http://www.w3.org/2000/svg" viewBox="0 0 925.2 940.06"><defs><style>.cls-1,.cls-2{fill:none;stroke-miterlimit:10;stroke-width:13px;}.cls-1{stroke:#a58acf;}.cls-2{stroke:#009245;}.cls-3{fill:#009245;}.cls-4{fill:#a58acf;}.cls-5{fill:#888;}.cls-6{fill:#fff;}.cls-7{fill:#3c2d49;}</style></defs><g id="Lines_-_Integration" data-name="Lines - Integration"><line class="cls-1" x1="328.81" y1="848.17" x2="212.81" y2="184.17"/><line class="cls-1" x1="78.81" y1="415.17" x2="328.81" y2="848.17"/><line class="cls-1" x1="594.81" y1="848.17" x2="712.81" y2="185.17"/><line class="cls-1" x1="845.81" y1="415.17" x2="594.81" y2="848.17"/><line class="cls-1" x1="212.81" y1="184.17" x2="845.81" y2="415.17"/><line class="cls-1" x1="78.81" y1="415.17" x2="712.81" y2="185.17"/><line class="cls-1" x1="124.81" y1="677.17" x2="798.81" y2="677.17"/><line class="cls-1" x1="462.81" y1="94.17" x2="798.81" y2="677.17"/><line class="cls-1" x1="124.81" y1="677.17" x2="462.81" y2="94.17"/></g><g id="Type_4" data-name="Type 4"><line class="cls-2" x1="595" y1="848.34" x2="707.51" y2="213.86"/><polygon class="cls-3" points="729.35 280.17 719.1 281.96 707.33 214.86 673.22 273.82 664.22 268.62 712.64 184.93 729.35 280.17"/></g><g id="Base"><path class="cls-4" d="M500,115a383.82,383.82,0,1,1-149.85,30.25A382.57,382.57,0,0,1,500,115m0-15c-220.91,0-400,179.09-400,400S279.09,900,500,900,900,720.91,900,500,720.91,100,500,100Z" transform="translate(-37.69 -17.33)"/><path class="cls-5" d="M503.85,39.21l.71,1.06a4.44,4.44,0,0,1-2.21,2,9,9,0,0,1-3.51.63,9.76,9.76,0,0,1-5.5-1.55,10.1,10.1,0,0,1-3.69-4.38,15.32,15.32,0,0,1-1.32-6.55v0a16,16,0,0,1,1.43-7.06,10,10,0,0,1,4.18-4.45,13.27,13.27,0,0,1,6.57-1.52,13,13,0,0,1,6.57,1.55,10.23,10.23,0,0,1,4.16,4.51,16.29,16.29,0,0,1,1.43,7.12v0a20.74,20.74,0,0,1-.6,4.76,35,35,0,0,1-1.71,5.23c-.1.27-.21.54-.32.81l-.36.77-8.35,18.25h-7.47Zm.47-4.44a7,7,0,0,0,1.35-4.61v0a6.67,6.67,0,0,0-1.35-4.47,5.41,5.41,0,0,0-7.64,0,6.7,6.7,0,0,0-1.35,4.48v0a7,7,0,0,0,1.35,4.6,4.71,4.71,0,0,0,3.83,1.61A4.65,4.65,0,0,0,504.32,34.77Z" transform="translate(-37.69 -17.33)"/><path class="cls-5" d="M199.58,166a10.91,10.91,0,0,1-4.63-4.14,11.66,11.66,0,0,1-1.64-6.23v-.7a11.54,11.54,0,0,1,1.68-6,11.13,11.13,0,0,1,4.47-4.25,9.7,9.7,0,0,1-3.82-3.54,9,9,0,0,1-1.45-4.89v-1.06a11,11,0,0,1,1.54-5.87,10.29,10.29,0,0,1,4.32-3.93,15.78,15.78,0,0,1,12.95,0,10.41,10.41,0,0,1,4.32,3.93,11.12,11.12,0,0,1,1.54,5.87v1.06a9,9,0,0,1-1.48,4.93,9.64,9.64,0,0,1-3.89,3.5,11.4,11.4,0,0,1,4.53,4.27,11.27,11.27,0,0,1,1.71,6v.7a11.66,11.66,0,0,1-1.64,6.23,10.85,10.85,0,0,1-4.63,4.14,17.12,17.12,0,0,1-13.88,0Zm10.21-6a5.32,5.32,0,0,0,2.2-2.08,6.15,6.15,0,0,0,.77-3.08v-.41a5.76,5.76,0,0,0-.77-3,5.33,5.33,0,0,0-2.19-2,7.93,7.93,0,0,0-6.56,0,5.22,5.22,0,0,0-2.18,2,5.71,5.71,0,0,0-.78,3v.44a6,6,0,0,0,.78,3.06,5.17,5.17,0,0,0,2.19,2,7.74,7.74,0,0,0,6.54,0Zm-.47-18.71a4.66,4.66,0,0,0,1.87-2,6.32,6.32,0,0,0,.66-3v-.41a5.62,5.62,0,0,0-.66-2.75,4.51,4.51,0,0,0-1.87-1.85,6.45,6.45,0,0,0-5.6,0,4.51,4.51,0,0,0-1.87,1.85,5.68,5.68,0,0,0-.66,2.78v.44a6.14,6.14,0,0,0,.66,2.9,4.69,4.69,0,0,0,1.87,1.95,6,6,0,0,0,5.6,0Z" transform="translate(-37.69 -17.33)"/><path class="cls-5" d="M61.45,400.38,51.17,437.65H43.64l10.14-35.89H44.7V408h-7v-13H61.45Z" transform="translate(-37.69 -17.33)"/><path class="cls-5" d="M97.26,744.61a9.9,9.9,0,0,1-4.16-4.4,15.41,15.41,0,0,1-1.44-7v0a23,23,0,0,1,.57-4.94,31.84,31.84,0,0,1,1.63-5.17c.12-.29.24-.58.37-.87s.25-.56.39-.83l9-18.34h7.73l-10.55,21.24-1-1.05a5,5,0,0,1,2.14-2.14,6.73,6.73,0,0,1,3.28-.76,10.9,10.9,0,0,1,5.83,1.49,9.51,9.51,0,0,1,3.7,4.35,16.75,16.75,0,0,1,1.28,6.87v0a15.8,15.8,0,0,1-1.44,7,10,10,0,0,1-4.17,4.45,15,15,0,0,1-13.14,0Zm10.4-6.73a6.15,6.15,0,0,0,1.35-4.27v0a7.37,7.37,0,0,0-1.38-4.79,4.84,4.84,0,0,0-4-1.69,4.4,4.4,0,0,0-3.7,1.7,7.77,7.77,0,0,0-1.31,4.81v0A6.12,6.12,0,0,0,100,737.9a5.65,5.65,0,0,0,7.65,0Z" transform="translate(-37.69 -17.33)"/><path class="cls-5" d="M337.2,956a10.67,10.67,0,0,1-4.23-4,15.35,15.35,0,0,1-2-6.32v0h7v0a5.66,5.66,0,0,0,1.64,3.65,5,5,0,0,0,3.6,1.3A4.69,4.69,0,0,0,347,949a7.07,7.07,0,0,0,1.37-4.65v-3.58a7.29,7.29,0,0,0-1.31-4.63,4.43,4.43,0,0,0-3.67-1.64,5.26,5.26,0,0,0-3,.88,6,6,0,0,0-2.09,2.46h-6.48V914.35h22.3v6.71h-15.3v8.56a6.82,6.82,0,0,1,2.48-1.41,9.35,9.35,0,0,1,3-.5,11.2,11.2,0,0,1,6,1.53,9.63,9.63,0,0,1,3.79,4.45,17.28,17.28,0,0,1,1.31,7.06v3.58a15.9,15.9,0,0,1-1.45,7.06,10.1,10.1,0,0,1-4.21,4.46,13.31,13.31,0,0,1-6.62,1.54A12.53,12.53,0,0,1,337.2,956Z" transform="translate(-37.69 -17.33)"/><path class="cls-5" d="M642.35,944.49l13.71-29.77h7.62l-13.36,29.42h20v6.62h-28Zm17.78-12.25h6.92v25.08h-6.92Z" transform="translate(-37.69 -17.33)"/><path class="cls-5" d="M888.78,745.63a11,11,0,0,1-4.58-3.94,13.25,13.25,0,0,1-2-6.2h7.18a6.09,6.09,0,0,0,1,2.63,4.59,4.59,0,0,0,1.9,1.56,6.61,6.61,0,0,0,2.73.53,5.54,5.54,0,0,0,4.07-1.42,5.41,5.41,0,0,0,1.43-4v-1.14a6.62,6.62,0,0,0-1.27-4.35,4.46,4.46,0,0,0-3.65-1.54h-3.31v-6.68h3.31a3.8,3.8,0,0,0,3.12-1.33,5.69,5.69,0,0,0,1.1-3.74v-1a4.74,4.74,0,0,0-1.19-3.48,4.45,4.45,0,0,0-3.35-1.21,4.68,4.68,0,0,0-4.13,2.24,7.82,7.82,0,0,0-1.06,2.77h-7.14a15.41,15.41,0,0,1,2.15-6.36,11.13,11.13,0,0,1,4.34-4,12.75,12.75,0,0,1,6-1.38q5.56,0,8.62,2.9t3.07,8.18v1a9,9,0,0,1-1.62,5.36,9.23,9.23,0,0,1-4.57,3.37,8.1,8.1,0,0,1,5.09,3.33,11.32,11.32,0,0,1,1.8,6.6v1a13,13,0,0,1-1.45,6.36,9.6,9.6,0,0,1-4.23,4,14.94,14.94,0,0,1-6.68,1.38A15.38,15.38,0,0,1,888.78,745.63Z" transform="translate(-37.69 -17.33)"/><path class="cls-5" d="M938.29,432.41,953,412.9a12.87,12.87,0,0,0,1.77-3.09,8.14,8.14,0,0,0,.63-3v-.06a4.21,4.21,0,0,0-1.3-3.31,5.35,5.35,0,0,0-3.7-1.17,5,5,0,0,0-3.74,1.42,6.46,6.46,0,0,0-1.71,4v0h-7.21v0a15.74,15.74,0,0,1,2-6.56,11.11,11.11,0,0,1,4.34-4.16,13.05,13.05,0,0,1,6.21-1.43,15.47,15.47,0,0,1,6.65,1.3,9.39,9.39,0,0,1,4.2,3.79,11.73,11.73,0,0,1,1.45,6v0a15.1,15.1,0,0,1-1,5.23,19.5,19.5,0,0,1-2.71,5l-11.43,15H962.9v6.71H938.29Z" transform="translate(-37.69 -17.33)"/><path class="cls-5" d="M799.24,167.64h-7V133l-5.62,2.84V128.5l6.21-3.46h6.41Z" transform="translate(-37.69 -17.33)"/><path class="cls-6" d="M250.27,234.27a32.51,32.51,0,1,1,20.84-7.59A32.43,32.43,0,0,1,250.27,234.27Z" transform="translate(-37.69 -17.33)"/><path class="cls-7" d="M250.23,161.76v15a25,25,0,0,1,16.07,44.17,24.67,24.67,0,0,1-16,5.84A25,25,0,0,1,234.2,182.6a24.65,24.65,0,0,1,16-5.84v-15m0,0a40,40,0,1,0,30.68,14.32,39.88,39.88,0,0,0-30.68-14.32Z" transform="translate(-37.69 -17.33)"/><path class="cls-6" d="M117,464.58a33.4,33.4,0,0,1-5.72-.5,32.5,32.5,0,1,1,5.72.5Z" transform="translate(-37.69 -17.33)"/><path class="cls-7" d="M116.93,407.07a25,25,0,1,1-4.32,49.62,25,25,0,0,1,4.32-49.62h0m0-15a40,40,0,1,0,7,.62,40,40,0,0,0-7-.62Z" transform="translate(-37.69 -17.33)"/><path class="cls-6" d="M163,726.68a32.52,32.52,0,1,1,16.19-4.35A32.6,32.6,0,0,1,163,726.68Z" transform="translate(-37.69 -17.33)"/><path class="cls-7" d="M162.89,669.16h0a25,25,0,0,1,24.18,31.51,25,25,0,1,1-24.18-31.51m0-15a40,40,0,1,0,34.7,20.05,39.87,39.87,0,0,0-34.7-20.05Z" transform="translate(-37.69 -17.33)"/><path class="cls-6" d="M366.59,897.92a32.51,32.51,0,1,1,30.54-21.36A32.5,32.5,0,0,1,366.59,897.92Z" transform="translate(-37.69 -17.33)"/><path class="cls-7" d="M366.6,840.4a24.75,24.75,0,0,1,8.57,1.53,25,25,0,1,1-8.57-1.53h0m0-15a40,40,0,1,0,13.72,2.44,40,40,0,0,0-13.72-2.44Z" transform="translate(-37.69 -17.33)"/><path class="cls-6" d="M632.69,898.18a32.61,32.61,0,0,1-30.55-21.42,32.52,32.52,0,0,1,30.55-43.6,32.61,32.61,0,0,1,30.55,21.42,32.52,32.52,0,0,1-30.55,43.6Z" transform="translate(-37.69 -17.33)"/><path class="cls-7" d="M632.69,840.66a25.06,25.06,0,1,1-8.53,1.51,25.08,25.08,0,0,1,8.53-1.51h0m0-15A40,40,0,1,0,670.29,852a39.77,39.77,0,0,0-37.6-26.37Z" transform="translate(-37.69 -17.33)"/><path class="cls-6" d="M836.66,727.33a32.5,32.5,0,1,1,28.16-16.22A32.47,32.47,0,0,1,836.66,727.33Z" transform="translate(-37.69 -17.33)"/><path class="cls-7" d="M836.73,669.82h0a25,25,0,1,1-21.67,12.49,25,25,0,0,1,21.67-12.49m0-15a40,40,0,1,0,20,5.39,40,40,0,0,0-20-5.39Z" transform="translate(-37.69 -17.33)"/><path class="cls-6" d="M883.11,465.33a32.5,32.5,0,0,1-5.57-64.52,32.78,32.78,0,0,1,5.66-.49,32.5,32.5,0,0,1,5.57,64.52A33.71,33.71,0,0,1,883.11,465.33Z" transform="translate(-37.69 -17.33)"/><path class="cls-7" d="M883.2,392.82v15a25,25,0,0,1,4.27,49.63,25.59,25.59,0,0,1-4.36.38,25,25,0,0,1-4.27-49.63,25.59,25.59,0,0,1,4.36-.38v-15m0,0a40,40,0,1,0,39.35,33.1,40.14,40.14,0,0,0-39.35-33.1Z" transform="translate(-37.69 -17.33)"/><path class="cls-6" d="M750.31,234.75a32.5,32.5,0,1,1,24.9-11.58A32.5,32.5,0,0,1,750.31,234.75Z" transform="translate(-37.69 -17.33)"/><path class="cls-7" d="M750.36,177.25a25,25,0,0,1,19.11,41.09,24.94,24.94,0,0,1-19.16,8.91,25,25,0,0,1-19.11-41.09,25,25,0,0,1,19.16-8.91m0-15a40,40,0,1,0,25.72,9.39,39.91,39.91,0,0,0-25.72-9.39Z" transform="translate(-37.69 -17.33)"/><path class="cls-6" d="M500.35,143.5A32.5,32.5,0,1,1,532.88,111a32.3,32.3,0,0,1-32.53,32.47Z" transform="translate(-37.69 -17.33)"/><path class="cls-7" d="M500.4,86a25,25,0,1,1-25,25,25,25,0,0,1,25-25h0m0-15a40,40,0,0,0,0,80h0a40,40,0,0,0,0-80Z" transform="translate(-37.69 -17.33)"/></g></svg>