<svg id="Ebene_1" data-name="Ebene 1" xmlns="http://www.w3.org/2000/svg" viewBox="0 0 257.9 257.9"><defs><style>.cls-1{fill:#a58acf;stroke:#a58acf;stroke-miterlimit:10;stroke-width:5px;}</style></defs><path class="cls-1" d="M230.25,112.93a2.84,2.84,0,0,0-1.67-1.67l-39.3-14.45L196.52,54a2.82,2.82,0,0,0-3.74-3.11L151.49,66,130.65,30.12a2.81,2.81,0,0,0-2.43-1.4h0a2.81,2.81,0,0,0-2.43,1.41l-20.6,35.76-40.87-15A2.81,2.81,0,0,0,60.56,54l7.13,42.86-40.56,14.9a2.81,2.81,0,0,0-1.46,4l25.46,44L39.85,179.31a2.81,2.81,0,0,0,2.44,4.21H64.91l24.37,42.07a2.79,2.79,0,0,0,3.38,1.23,2.81,2.81,0,0,0,1.82-3.1l-6.69-40.2h81.15l-6.79,40.19a2.81,2.81,0,0,0,5.21,1.86l23.9-42H214.8a2.82,2.82,0,0,0,2.43-4.22l-11.91-20.51,24.73-43.5A2.83,2.83,0,0,0,230.25,112.93ZM190.17,57.81l-6.25,37L164,87.5,154.35,71Zm-9.79,58-12-20.69L183,100.48ZM155.69,84.46l-19-7L149,72.93ZM128.23,37.15,146.13,68l-17.61,6.47-18-6.61Zm-7.86,40.31-19.49,7.16,6.81-11.82ZM66.9,57.8l35.44,13L92.65,87.65l-19.59,7.2ZM74,100.49l14.28-5.25L76.52,115.66ZM32.21,115.84l36.41-13.38,3.47,20.87L54.37,154.1Zm41.34,16.23,7.62,45.83h-13L57.62,159.72ZM47.15,177.9l7.23-12.56,7.27,12.56Zm39.26,31.52-15-25.9H82.1Zm.45-31.52L78,124.4,96.5,92.22l32-11.76,31.59,11.62,18.8,32.4-9,53.42Zm96.47-45.82,15.51,26.74L188,177.9H175.59Zm-13,76.88,4.3-25.44H184.8Zm39.58-31.06H194.46l7.65-13.45Zm-7.86-24.74-17.27-29.75,3.54-21,35.2,12.94Z" transform="translate(1.09 1.09)"/><path class="cls-1" d="M127.86,254.31A126.45,126.45,0,1,1,254.31,127.86,126.59,126.59,0,0,1,127.86,254.31ZM127.86,7A120.83,120.83,0,1,0,248.69,127.86,121,121,0,0,0,127.86,7Z" transform="translate(1.09 1.09)"/></svg>